<svg id="my-svg" width="100%" xmlns="http://www.w3.org/2000/svg" xmlns:xlink="http://www.w3.org/1999/xlink" class="classDiagram" style="max-width: 1762.58px; background-color: white;" viewBox="0 0 1762.578125 787.5" role="graphics-document document" aria-roledescription="class"><style>#my-svg{font-family:"trebuchet ms",verdana,arial,sans-serif;font-size:16px;fill:#333;}@keyframes edge-animation-frame{from{stroke-dashoffset:0;}}@keyframes dash{to{stroke-dashoffset:0;}}#my-svg .edge-animation-slow{stroke-dasharray:9,5!important;stroke-dashoffset:900;animation:dash 50s linear infinite;stroke-linecap:round;}#my-svg .edge-animation-fast{stroke-dasharray:9,5!important;stroke-dashoffset:900;animation:dash 20s linear infinite;stroke-linecap:round;}#my-svg .error-icon{fill:#552222;}#my-svg .error-text{fill:#552222;stroke:#552222;}#my-svg .edge-thickness-normal{stroke-width:1px;}#my-svg .edge-thickness-thick{stroke-width:3.5px;}#my-svg .edge-pattern-solid{stroke-dasharray:0;}#my-svg .edge-thickness-invisible{stroke-width:0;fill:none;}#my-svg .edge-pattern-dashed{stroke-dasharray:3;}#my-svg .edge-pattern-dotted{stroke-dasharray:2;}#my-svg .marker{fill:#333333;stroke:#333333;}#my-svg .marker.cross{stroke:#333333;}#my-svg svg{font-family:"trebuchet ms",verdana,arial,sans-serif;font-size:16px;}#my-svg p{margin:0;}#my-svg g.classGroup text{fill:#9370DB;stroke:none;font-family:"trebuchet ms",verdana,arial,sans-serif;font-size:10px;}#my-svg g.classGroup text .title{font-weight:bolder;}#my-svg .nodeLabel,#my-svg .edgeLabel{color:#131300;}#my-svg .edgeLabel .label rect{fill:#ECECFF;}#my-svg .label text{fill:#131300;}#my-svg .labelBkg{background:#ECECFF;}#my-svg .edgeLabel .label span{background:#ECECFF;}#my-svg .classTitle{font-weight:bolder;}#my-svg .node rect,#my-svg .node circle,#my-svg .node ellipse,#my-svg .node polygon,#my-svg .node path{fill:#ECECFF;stroke:#9370DB;stroke-width:1px;}#my-svg .divider{stroke:#9370DB;stroke-width:1;}#my-svg g.clickable{cursor:pointer;}#my-svg g.classGroup rect{fill:#ECECFF;stroke:#9370DB;}#my-svg g.classGroup line{stroke:#9370DB;stroke-width:1;}#my-svg .classLabel .box{stroke:none;stroke-width:0;fill:#ECECFF;opacity:0.5;}#my-svg .classLabel .label{fill:#9370DB;font-size:10px;}#my-svg .relation{stroke:#333333;stroke-width:1;fill:none;}#my-svg .dashed-line{stroke-dasharray:3;}#my-svg .dotted-line{stroke-dasharray:1 2;}#my-svg #compositionStart,#my-svg .composition{fill:#333333!important;stroke:#333333!important;stroke-width:1;}#my-svg #compositionEnd,#my-svg .composition{fill:#333333!important;stroke:#333333!important;stroke-width:1;}#my-svg #dependencyStart,#my-svg .dependency{fill:#333333!important;stroke:#333333!important;stroke-width:1;}#my-svg #dependencyStart,#my-svg .dependency{fill:#333333!important;stroke:#333333!important;stroke-width:1;}#my-svg #extensionStart,#my-svg .extension{fill:transparent!important;stroke:#333333!important;stroke-width:1;}#my-svg #extensionEnd,#my-svg .extension{fill:transparent!important;stroke:#333333!important;stroke-width:1;}#my-svg #aggregationStart,#my-svg .aggregation{fill:transparent!important;stroke:#333333!important;stroke-width:1;}#my-svg #aggregationEnd,#my-svg .aggregation{fill:transparent!important;stroke:#333333!important;stroke-width:1;}#my-svg #lollipopStart,#my-svg .lollipop{fill:#ECECFF!important;stroke:#333333!important;stroke-width:1;}#my-svg #lollipopEnd,#my-svg .lollipop{fill:#ECECFF!important;stroke:#333333!important;stroke-width:1;}#my-svg .edgeTerminals{font-size:11px;line-height:initial;}#my-svg .classTitleText{text-anchor:middle;font-size:18px;fill:#333;}#my-svg .label-icon{display:inline-block;height:1em;overflow:visible;vertical-align:-0.125em;}#my-svg .node .label-icon path{fill:currentColor;stroke:revert;stroke-width:revert;}#my-svg :root{--mermaid-font-family:"trebuchet ms",verdana,arial,sans-serif;}#my-svg .HPC User&gt;*{fill:#ffffff!important;stroke:#000000!important;stroke-width:2px!important;}#my-svg .HPC User span{fill:#ffffff!important;stroke:#000000!important;stroke-width:2px!important;}#my-svg .CLI&gt;*{fill:#ffffff!important;stroke:#4e9db5!important;stroke-width:2px!important;}#my-svg .CLI span{fill:#ffffff!important;stroke:#4e9db5!important;stroke-width:2px!important;}#my-svg .init&gt;*{fill:#ffffff!important;stroke:#4e9db5!important;stroke-width:2px!important;}#my-svg .init span{fill:#ffffff!important;stroke:#4e9db5!important;stroke-width:2px!important;}#my-svg .run&gt;*{fill:#ffffff!important;stroke:#4e9db5!important;stroke-width:2px!important;}#my-svg .run span{fill:#ffffff!important;stroke:#4e9db5!important;stroke-width:2px!important;}#my-svg .cite&gt;*{fill:#ffffff!important;stroke:#4e9db5!important;stroke-width:2px!important;}#my-svg .cite span{fill:#ffffff!important;stroke:#4e9db5!important;stroke-width:2px!important;}#my-svg .Nextflow Utilities&gt;*{fill:#ffffff!important;stroke:#7cc349!important;stroke-width:2px!important;}#my-svg .Nextflow Utilities span{fill:#ffffff!important;stroke:#7cc349!important;stroke-width:2px!important;}#my-svg .Slurm Scheduler&gt;*{fill:#ffffff!important;stroke:#296b7f!important;stroke-width:2px!important;}#my-svg .Slurm Scheduler span{fill:#ffffff!important;stroke:#296b7f!important;stroke-width:2px!important;}#my-svg .Local Executor&gt;*{fill:#ffffff!important;stroke:#296b7f!important;stroke-width:2px!important;}#my-svg .Local Executor span{fill:#ffffff!important;stroke:#296b7f!important;stroke-width:2px!important;}</style><g><defs><marker id="my-svg_class-aggregationStart" class="marker aggregation class" refX="18" refY="7" markerWidth="190" markerHeight="240" orient="auto"><path d="M 18,7 L9,13 L1,7 L9,1 Z"/></marker></defs><defs><marker id="my-svg_class-aggregationEnd" class="marker aggregation class" refX="1" refY="7" markerWidth="20" markerHeight="28" orient="auto"><path d="M 18,7 L9,13 L1,7 L9,1 Z"/></marker></defs><defs><marker id="my-svg_class-extensionStart" class="marker extension class" refX="18" refY="7" markerWidth="190" markerHeight="240" orient="auto"><path d="M 1,7 L18,13 V 1 Z"/></marker></defs><defs><marker id="my-svg_class-extensionEnd" class="marker extension class" refX="1" refY="7" markerWidth="20" markerHeight="28" orient="auto"><path d="M 1,1 V 13 L18,7 Z"/></marker></defs><defs><marker id="my-svg_class-compositionStart" class="marker composition class" refX="18" refY="7" markerWidth="190" markerHeight="240" orient="auto"><path d="M 18,7 L9,13 L1,7 L9,1 Z"/></marker></defs><defs><marker id="my-svg_class-compositionEnd" class="marker composition class" refX="1" refY="7" markerWidth="20" markerHeight="28" orient="auto"><path d="M 18,7 L9,13 L1,7 L9,1 Z"/></marker></defs><defs><marker id="my-svg_class-dependencyStart" class="marker dependency class" refX="6" refY="7" markerWidth="190" markerHeight="240" orient="auto"><path d="M 5,7 L9,13 L1,7 L9,1 Z"/></marker></defs><defs><marker id="my-svg_class-dependencyEnd" class="marker dependency class" refX="13" refY="7" markerWidth="20" markerHeight="28" orient="auto"><path d="M 18,7 L9,13 L14,7 L9,1 Z"/></marker></defs><defs><marker id="my-svg_class-lollipopStart" class="marker lollipop class" refX="13" refY="7" markerWidth="190" markerHeight="240" orient="auto"><circle stroke="black" fill="transparent" cx="7" cy="7" r="6"/></marker></defs><defs><marker id="my-svg_class-lollipopEnd" class="marker lollipop class" refX="1" refY="7" markerWidth="190" markerHeight="240" orient="auto"><circle stroke="black" fill="transparent" cx="7" cy="7" r="6"/></marker></defs><g class="root"><g class="clusters"><g class="cluster undefined" id="Bioinformatics Pipeline" data-look="classic"><rect style="fill:none !important;stroke:black !important" x="323.7265625" y="8" width="467.6328125" height="771.5"/><g class="cluster-label" transform="translate(474.95703125, 8)"><foreignObject width="165.171875" height="24"><div xmlns="http://www.w3.org/1999/xhtml" style="display: table-cell; white-space: nowrap; line-height: 1.5; max-width: 200px; text-align: center;"><span class="nodeLabel"><p>Bioinformatics Pipeline</p></span></div></foreignObject></g></g><g class="cluster undefined" id="Tools Package" data-look="classic"><rect style="fill:none !important;stroke:black !important" x="841.359375" y="46" width="424.2109375" height="418"/><g class="cluster-label" transform="translate(1004.35546875, 46)"><foreignObject width="98.21875" height="24"><div xmlns="http://www.w3.org/1999/xhtml" style="display: table-cell; white-space: nowrap; line-height: 1.5; max-width: 200px; text-align: center;"><span class="nodeLabel"><p>Tools Package</p></span></div></foreignObject></g></g><g class="cluster undefined" id="Nextflow" data-look="classic"><rect style="fill:none !important;stroke:black !important" x="1402.9140625" y="44" width="351.6640625" height="408"/><g class="cluster-label" transform="translate(1546.53515625, 44)"><foreignObject width="64.421875" height="24"><div xmlns="http://www.w3.org/1999/xhtml" style="display: table-cell; white-space: nowrap; line-height: 1.5; max-width: 200px; text-align: center;"><span class="nodeLabel"><p>Nextflow</p></span></div></foreignObject></g></g></g><g class="edgePaths"><path d="M220.727,394.5L229.31,394.5C237.893,394.5,255.06,394.5,272.227,394.5C289.393,394.5,306.56,394.5,318.31,394.5C330.06,394.5,336.393,394.5,339.56,394.5L342.727,394.5" id="id_HPC User_CLI_1" class="edge-thickness-normal edge-pattern-solid relation" style=";;;" data-edge="true" data-et="edge" data-id="id_HPC User_CLI_1" data-points="W3sieCI6MjIwLjcyNjU2MjUsInkiOjM5NC41fSx7IngiOjI3Mi4yMjY1NjI1LCJ5IjozOTQuNX0seyJ4IjozMjMuNzI2NTYyNSwieSI6Mzk0LjV9LHsieCI6MzQ4LjcyNjU2MjUsInkiOjM5NC41fV0=" marker-end="url(#my-svg_class-dependencyEnd)"/><path d="M442.655,279.032L450.477,253.943C458.299,228.855,473.942,178.677,486.078,153.589C498.214,128.5,506.841,128.5,511.155,128.5L515.469,128.5" id="id_CLI_init_2" class="edge-thickness-normal edge-pattern-solid relation" style=";;;" data-edge="true" data-et="edge" data-id="id_CLI_init_2" data-points="W3sieCI6NDM3LjUyMTA1ODUwNTYzOTEsInkiOjI5NS41fSx7IngiOjQ4OS41ODU5Mzc1LCJ5IjoxMjguNX0seyJ4Ijo1MTUuNDY4NzUsInkiOjEyOC41fV0=" marker-start="url(#my-svg_class-compositionStart)"/><path d="M481.836,394.5L483.128,394.5C484.419,394.5,487.003,394.5,492.461,394.5C497.919,394.5,506.253,394.5,510.419,394.5L514.586,394.5" id="id_CLI_run_3" class="edge-thickness-normal edge-pattern-solid relation" style=";;;" data-edge="true" data-et="edge" data-id="id_CLI_run_3" data-points="W3sieCI6NDY0LjU4NTkzNzUsInkiOjM5NC41fSx7IngiOjQ4OS41ODU5Mzc1LCJ5IjozOTQuNX0seyJ4Ijo1MTQuNTg1OTM3NSwieSI6Mzk0LjV9XQ==" marker-start="url(#my-svg_class-compositionStart)"/><path d="M442.655,509.968L450.477,535.057C458.299,560.145,473.942,610.323,489.717,635.411C505.492,660.5,521.398,660.5,529.352,660.5L537.305,660.5" id="id_CLI_cite_4" class="edge-thickness-normal edge-pattern-solid relation" style=";;;" data-edge="true" data-et="edge" data-id="id_CLI_cite_4" data-points="W3sieCI6NDM3LjUyMTA1ODUwNTYzOTEsInkiOjQ5My41fSx7IngiOjQ4OS41ODU5Mzc1LCJ5Ijo2NjAuNX0seyJ4Ijo1MzcuMzA0Njg3NSwieSI6NjYwLjV9XQ==" marker-start="url(#my-svg_class-compositionStart)"/><path d="M765.477,128.5L769.79,128.5C774.104,128.5,782.732,128.5,791.212,128.5C799.693,128.5,808.026,128.5,816.359,128.5C824.693,128.5,833.026,128.5,848.306,135.39C863.585,142.279,885.811,156.059,896.924,162.949L908.037,169.838" id="id_init_Nextflow Utilities_5" class="edge-thickness-normal edge-pattern-dashed relation" style=";;;" data-edge="true" data-et="edge" data-id="id_init_Nextflow Utilities_5" data-points="W3sieCI6NzY1LjQ3NjU2MjUsInkiOjEyOC41fSx7IngiOjc5MS4zNTkzNzUsInkiOjEyOC41fSx7IngiOjgxNi4zNTkzNzUsInkiOjEyOC41fSx7IngiOjg0MS4zNTkzNzUsInkiOjEyOC41fSx7IngiOjkxMy4xMzY1MTA4MTI3Mzc3LCJ5IjoxNzN9XQ==" marker-end="url(#my-svg_class-dependencyEnd)"/><path d="M766.359,394.5L770.526,394.5C774.693,394.5,783.026,394.5,791.359,394.5C799.693,394.5,808.026,394.5,816.359,394.5C824.693,394.5,833.026,394.5,848.833,387.119C864.639,379.738,887.919,364.975,899.559,357.594L911.199,350.213" id="id_run_Nextflow Utilities_6" class="edge-thickness-normal edge-pattern-dashed relation" style=";;;" data-edge="true" data-et="edge" data-id="id_run_Nextflow Utilities_6" data-points="W3sieCI6NzY2LjM1OTM3NSwieSI6Mzk0LjV9LHsieCI6NzkxLjM1OTM3NSwieSI6Mzk0LjV9LHsieCI6ODE2LjM1OTM3NSwieSI6Mzk0LjV9LHsieCI6ODQxLjM1OTM3NSwieSI6Mzk0LjV9LHsieCI6OTE2LjI2NjUxMDgwMzkwMzMsInkiOjM0N31d" marker-end="url(#my-svg_class-dependencyEnd)"/><path d="M1240.57,174.433L1244.737,172.527C1248.904,170.622,1257.237,166.811,1272.849,164.905C1288.461,163,1311.352,163,1334.242,163C1357.133,163,1380.023,163,1394.635,163C1409.247,163,1415.581,163,1418.747,163L1421.914,163" id="id_Nextflow Utilities_Slurm Scheduler_7" class="edge-thickness-normal edge-pattern-dashed relation" style=";;;" data-edge="true" data-et="edge" data-id="id_Nextflow Utilities_Slurm Scheduler_7" data-points="W3sieCI6MTI0MC41NzAzMTI1LCJ5IjoxNzQuNDMyOTkxMzk5NDczMjh9LHsieCI6MTI2NS41NzAzMTI1LCJ5IjoxNjN9LHsieCI6MTMzNC4yNDIxODc1LCJ5IjoxNjN9LHsieCI6MTQwMi45MTQwNjI1LCJ5IjoxNjN9LHsieCI6MTQyNy45MTQwNjI1LCJ5IjoxNjN9XQ==" marker-end="url(#my-svg_class-dependencyEnd)"/><path d="M1240.57,345.567L1244.737,347.473C1248.904,349.378,1257.237,353.189,1272.849,355.095C1288.461,357,1311.352,357,1334.242,357C1357.133,357,1380.023,357,1403.649,357C1427.275,357,1451.635,357,1463.816,357L1475.996,357" id="id_Nextflow Utilities_Local Executor_8" class="edge-thickness-normal edge-pattern-dashed relation" style=";;;" data-edge="true" data-et="edge" data-id="id_Nextflow Utilities_Local Executor_8" data-points="W3sieCI6MTI0MC41NzAzMTI1LCJ5IjozNDUuNTY3MDA4NjAwNTI2N30seyJ4IjoxMjY1LjU3MDMxMjUsInkiOjM1N30seyJ4IjoxMzM0LjI0MjE4NzUsInkiOjM1N30seyJ4IjoxNDAyLjkxNDA2MjUsInkiOjM1N30seyJ4IjoxNDgxLjk5NjA5Mzc1LCJ5IjozNTd9XQ==" marker-end="url(#my-svg_class-dependencyEnd)"/></g><g class="edgeLabels"><g class="edgeLabel" transform="translate(272.2265625, 394.5)"><g class="label" data-id="id_HPC User_CLI_1" transform="translate(-26.5, -12)"><foreignObject width="53" height="24"><div xmlns="http://www.w3.org/1999/xhtml" class="labelBkg" style="display: table-cell; white-space: nowrap; line-height: 1.5; max-width: 200px; text-align: center;"><span class="edgeLabel"><p>invokes</p></span></div></foreignObject></g></g><g class="edgeLabel"><g class="label" data-id="id_CLI_init_2" transform="translate(0, 0)"><foreignObject width="0" height="0"><div xmlns="http://www.w3.org/1999/xhtml" class="labelBkg" style="display: table-cell; white-space: nowrap; line-height: 1.5; max-width: 200px; text-align: center;"><span class="edgeLabel"></span></div></foreignObject></g></g><g class="edgeLabel"><g class="label" data-id="id_CLI_run_3" transform="translate(0, 0)"><foreignObject width="0" height="0"><div xmlns="http://www.w3.org/1999/xhtml" class="labelBkg" style="display: table-cell; white-space: nowrap; line-height: 1.5; max-width: 200px; text-align: center;"><span class="edgeLabel"></span></div></foreignObject></g></g><g class="edgeLabel"><g class="label" data-id="id_CLI_cite_4" transform="translate(0, 0)"><foreignObject width="0" height="0"><div xmlns="http://www.w3.org/1999/xhtml" class="labelBkg" style="display: table-cell; white-space: nowrap; line-height: 1.5; max-width: 200px; text-align: center;"><span class="edgeLabel"></span></div></foreignObject></g></g><g class="edgeLabel"><g class="label" data-id="id_init_Nextflow Utilities_5" transform="translate(0, 0)"><foreignObject width="0" height="0"><div xmlns="http://www.w3.org/1999/xhtml" class="labelBkg" style="display: table-cell; white-space: nowrap; line-height: 1.5; max-width: 200px; text-align: center;"><span class="edgeLabel"></span></div></foreignObject></g></g><g class="edgeLabel"><g class="label" data-id="id_run_Nextflow Utilities_6" transform="translate(0, 0)"><foreignObject width="0" height="0"><div xmlns="http://www.w3.org/1999/xhtml" class="labelBkg" style="display: table-cell; white-space: nowrap; line-height: 1.5; max-width: 200px; text-align: center;"><span class="edgeLabel"></span></div></foreignObject></g></g><g class="edgeLabel" transform="translate(1334.2421875, 163)"><g class="label" data-id="id_Nextflow Utilities_Slurm Scheduler_7" transform="translate(-43.671875, -12)"><foreignObject width="87.34375" height="24"><div xmlns="http://www.w3.org/1999/xhtml" class="labelBkg" style="display: table-cell; white-space: nowrap; line-height: 1.5; max-width: 200px; text-align: center;"><span class="edgeLabel"><p>mode=slurm</p></span></div></foreignObject></g></g><g class="edgeLabel" transform="translate(1334.2421875, 357)"><g class="label" data-id="id_Nextflow Utilities_Local Executor_8" transform="translate(-41.125, -12)"><foreignObject width="82.25" height="24"><div xmlns="http://www.w3.org/1999/xhtml" class="labelBkg" style="display: table-cell; white-space: nowrap; line-height: 1.5; max-width: 200px; text-align: center;"><span class="edgeLabel"><p>mode=local</p></span></div></foreignObject></g></g></g><g class="nodes"><g class="node default actor" id="classId-HPC User-0" transform="translate(114.36328125, 394.5)"><g class="basic label-container"><path d="M-106.36328125 -84 L106.36328125 -84 L106.36328125 84 L-106.36328125 84" stroke="none" stroke-width="0" fill="#ffffff" style="fill:#ffffff;stroke:#000000;stroke-width:2px"/><path d="M-106.36328125 -84 C-47.21391416804487 -84, 11.935452913910254 -84, 106.36328125 -84 M-106.36328125 -84 C-50.2544670420383 -84, 5.8543471659234 -84, 106.36328125 -84 M106.36328125 -84 C106.36328125 -38.77979314672056, 106.36328125 6.440413706558886, 106.36328125 84 M106.36328125 -84 C106.36328125 -21.292817270021587, 106.36328125 41.41436545995683, 106.36328125 84 M106.36328125 84 C52.40964320261381 84, -1.543994844772385 84, -106.36328125 84 M106.36328125 84 C32.60514233315742 84, -41.152996583685166 84, -106.36328125 84 M-106.36328125 84 C-106.36328125 34.13404371888677, -106.36328125 -15.731912562226455, -106.36328125 -84 M-106.36328125 84 C-106.36328125 17.822555659451822, -106.36328125 -48.354888681096355, -106.36328125 -84" stroke="#000000" stroke-width="2" fill="none" stroke-dasharray="0 0" style="fill:#ffffff;stroke:#000000;stroke-width:2px"/></g><g class="annotation-group text" transform="translate(-27.1328125, -60)"><g class="label" style="" transform="translate(0,-12)"><foreignObject width="54.265625" height="24"><div xmlns="http://www.w3.org/1999/xhtml" style="display: table-cell; white-space: nowrap; line-height: 1.5; max-width: 98px; text-align: center;"><span class="nodeLabel markdown-node-label" style="fill:#ffffff;stroke:#000000;stroke-width:2px"><p>«actor»</p></span></div></foreignObject></g></g><g class="label-group text" transform="translate(-34.3515625, -36)"><g class="label" style="font-weight: bolder" transform="translate(0,-12)"><foreignObject width="68.703125" height="24"><div xmlns="http://www.w3.org/1999/xhtml" style="display: table-cell; white-space: nowrap; line-height: 1.5; max-width: 115px; text-align: center;"><span class="nodeLabel markdown-node-label" style="fill:#ffffff;stroke:#000000;stroke-width:2px"><p>HPC User</p></span></div></foreignObject></g></g><g class="members-group text" transform="translate(-94.36328125, 12)"><g class="label" style="" transform="translate(0,-12)"><foreignObject width="154.375" height="24"><div xmlns="http://www.w3.org/1999/xhtml" style="display: table-cell; white-space: nowrap; line-height: 1.5; max-width: 183px; text-align: center;"><span class="nodeLabel markdown-node-label" style="fill:#ffffff;stroke:#000000;stroke-width:2px"><p>pipeline-name init ...</p></span></div></foreignObject></g><g class="label" style="" transform="translate(0,12)"><foreignObject width="153.875" height="24"><div xmlns="http://www.w3.org/1999/xhtml" style="display: table-cell; white-space: nowrap; line-height: 1.5; max-width: 183px; text-align: center;"><span class="nodeLabel markdown-node-label" style="fill:#ffffff;stroke:#000000;stroke-width:2px"><p>pipeline-name run ...</p></span></div></foreignObject></g></g><g class="methods-group text" transform="translate(-94.36328125, 84)"/><g class="divider" style="fill:#ffffff;stroke:#000000;stroke-width:2px"><path d="M-106.36328125 -12 C-28.345560621983154 -12, 49.67216000603369 -12, 106.36328125 -12 M-106.36328125 -12 C-32.538745244493214 -12, 41.28579076101357 -12, 106.36328125 -12" stroke="#000000" stroke-width="2" fill="none" stroke-dasharray="0 0" style="fill:#ffffff;stroke:#000000;stroke-width:2px"/></g><g class="divider" style="fill:#ffffff;stroke:#000000;stroke-width:2px"><path d="M-106.36328125 60 C-59.863416821110825 60, -13.36355239222165 60, 106.36328125 60 M-106.36328125 60 C-59.96982580780241 60, -13.576370365604816 60, 106.36328125 60" stroke="#000000" stroke-width="2" fill="none" stroke-dasharray="0 0" style="fill:#ffffff;stroke:#000000;stroke-width:2px"/></g></g><g class="node default entrypoint" id="classId-CLI-1" transform="translate(406.65625, 394.5)"><g class="basic label-container"><path d="M-57.9296875 -99 L57.9296875 -99 L57.9296875 99 L-57.9296875 99" stroke="none" stroke-width="0" fill="#ffffff" style="fill:#ffffff;stroke:#4e9db5;stroke-width:2px"/><path d="M-57.9296875 -99 C-19.502781305306108 -99, 18.924124889387784 -99, 57.9296875 -99 M-57.9296875 -99 C-21.652545105619744 -99, 14.624597288760512 -99, 57.9296875 -99 M57.9296875 -99 C57.9296875 -22.300157121194133, 57.9296875 54.399685757611735, 57.9296875 99 M57.9296875 -99 C57.9296875 -52.69958463425925, 57.9296875 -6.399169268518506, 57.9296875 99 M57.9296875 99 C27.378357998936146 99, -3.1729715021277087 99, -57.9296875 99 M57.9296875 99 C34.18917059064964 99, 10.44865368129927 99, -57.9296875 99 M-57.9296875 99 C-57.9296875 46.97665241083194, -57.9296875 -5.0466951783361225, -57.9296875 -99 M-57.9296875 99 C-57.9296875 44.66993558645199, -57.9296875 -9.660128827096017, -57.9296875 -99" stroke="#4e9db5" stroke-width="2" fill="none" stroke-dasharray="0 0" style="fill:#ffffff;stroke:#4e9db5;stroke-width:2px"/></g><g class="annotation-group text" transform="translate(-45.9296875, -75)"><g class="label" style="" transform="translate(0,-12)"><foreignObject width="91.859375" height="24"><div xmlns="http://www.w3.org/1999/xhtml" style="display: table-cell; white-space: nowrap; line-height: 1.5; max-width: 132px; text-align: center;"><span class="nodeLabel markdown-node-label" style="fill:#ffffff;stroke:#4e9db5;stroke-width:2px"><p>«entrypoint»</p></span></div></foreignObject></g></g><g class="label-group text" transform="translate(-11.546875, -51)"><g class="label" style="font-weight: bolder" transform="translate(0,-12)"><foreignObject width="23.09375" height="24"><div xmlns="http://www.w3.org/1999/xhtml" style="display: table-cell; white-space: nowrap; line-height: 1.5; max-width: 76px; text-align: center;"><span class="nodeLabel markdown-node-label" style="fill:#ffffff;stroke:#4e9db5;stroke-width:2px"><p>CLI</p></span></div></foreignObject></g></g><g class="members-group text" transform="translate(-45.9296875, -3)"/><g class="methods-group text" transform="translate(-45.9296875, 27)"><g class="label" style="" transform="translate(0,-12)"><foreignObject width="35.96875" height="24"><div xmlns="http://www.w3.org/1999/xhtml" style="display: table-cell; white-space: nowrap; line-height: 1.5; max-width: 82px; text-align: center;"><span class="nodeLabel markdown-node-label" style="fill:#ffffff;stroke:#4e9db5;stroke-width:2px"><p>init()</p></span></div></foreignObject></g><g class="label" style="" transform="translate(0,12)"><foreignObject width="35.453125" height="24"><div xmlns="http://www.w3.org/1999/xhtml" style="display: table-cell; white-space: nowrap; line-height: 1.5; max-width: 82px; text-align: center;"><span class="nodeLabel markdown-node-label" style="fill:#ffffff;stroke:#4e9db5;stroke-width:2px"><p>run()</p></span></div></foreignObject></g><g class="label" style="" transform="translate(0,36)"><foreignObject width="39.3125" height="24"><div xmlns="http://www.w3.org/1999/xhtml" style="display: table-cell; white-space: nowrap; line-height: 1.5; max-width: 84px; text-align: center;"><span class="nodeLabel markdown-node-label" style="fill:#ffffff;stroke:#4e9db5;stroke-width:2px"><p>cite()</p></span></div></foreignObject></g></g><g class="divider" style="fill:#ffffff;stroke:#4e9db5;stroke-width:2px"><path d="M-57.9296875 -27 C-30.907351629297516 -27, -3.8850157585950313 -27, 57.9296875 -27 M-57.9296875 -27 C-27.28228338854448 -27, 3.365120722911037 -27, 57.9296875 -27" stroke="#4e9db5" stroke-width="2" fill="none" stroke-dasharray="0 0" style="fill:#ffffff;stroke:#4e9db5;stroke-width:2px"/></g><g class="divider" style="fill:#ffffff;stroke:#4e9db5;stroke-width:2px"><path d="M-57.9296875 -3 C-23.98316735422319 -3, 9.963352791553618 -3, 57.9296875 -3 M-57.9296875 -3 C-33.82462836375011 -3, -9.719569227500216 -3, 57.9296875 -3" stroke="#4e9db5" stroke-width="2" fill="none" stroke-dasharray="0 0" style="fill:#ffffff;stroke:#4e9db5;stroke-width:2px"/></g></g><g class="node default command" id="classId-init-2" transform="translate(640.47265625, 128.5)"><g class="basic label-container"><path d="M-125.00390625 -84 L125.00390625 -84 L125.00390625 84 L-125.00390625 84" stroke="none" stroke-width="0" fill="#ffffff" style="fill:#ffffff;stroke:#4e9db5;stroke-width:2px"/><path d="M-125.00390625 -84 C-30.046536734651326 -84, 64.91083278069735 -84, 125.00390625 -84 M-125.00390625 -84 C-28.63322912551972 -84, 67.73744799896056 -84, 125.00390625 -84 M125.00390625 -84 C125.00390625 -36.8116545686316, 125.00390625 10.376690862736794, 125.00390625 84 M125.00390625 -84 C125.00390625 -26.630977103748187, 125.00390625 30.738045792503627, 125.00390625 84 M125.00390625 84 C32.179270623589915 84, -60.64536500282017 84, -125.00390625 84 M125.00390625 84 C54.82588094744277 84, -15.352144355114461 84, -125.00390625 84 M-125.00390625 84 C-125.00390625 31.6212265895657, -125.00390625 -20.757546820868598, -125.00390625 -84 M-125.00390625 84 C-125.00390625 34.109168432006555, -125.00390625 -15.78166313598689, -125.00390625 -84" stroke="#4e9db5" stroke-width="2" fill="none" stroke-dasharray="0 0" style="fill:#ffffff;stroke:#4e9db5;stroke-width:2px"/></g><g class="annotation-group text" transform="translate(-42.9609375, -60)"><g class="label" style="" transform="translate(0,-12)"><foreignObject width="85.921875" height="24"><div xmlns="http://www.w3.org/1999/xhtml" style="display: table-cell; white-space: nowrap; line-height: 1.5; max-width: 129px; text-align: center;"><span class="nodeLabel markdown-node-label" style="fill:#ffffff;stroke:#4e9db5;stroke-width:2px"><p>«command»</p></span></div></foreignObject></g></g><g class="label-group text" transform="translate(-12.671875, -36)"><g class="label" style="font-weight: bolder" transform="translate(0,-12)"><foreignObject width="25.34375" height="24"><div xmlns="http://www.w3.org/1999/xhtml" style="display: table-cell; white-space: nowrap; line-height: 1.5; max-width: 71px; text-align: center;"><span class="nodeLabel markdown-node-label" style="fill:#ffffff;stroke:#4e9db5;stroke-width:2px"><p>init</p></span></div></foreignObject></g></g><g class="members-group text" transform="translate(-113.00390625, 12)"><g class="label" style="" transform="translate(0,-12)"><foreignObject width="94.859375" height="24"><div xmlns="http://www.w3.org/1999/xhtml" style="display: table-cell; white-space: nowrap; line-height: 1.5; max-width: 132px; text-align: center;"><span class="nodeLabel markdown-node-label" style="fill:#ffffff;stroke:#4e9db5;stroke-width:2px"><p>output : Path</p></span></div></foreignObject></g></g><g class="methods-group text" transform="translate(-113.00390625, 60)"><g class="label" style="" transform="translate(0,-12)"><foreignObject width="183.046875" height="24"><div xmlns="http://www.w3.org/1999/xhtml" style="display: table-cell; white-space: nowrap; line-height: 1.5; max-width: 212px; text-align: center;"><span class="nodeLabel markdown-node-label" style="fill:#ffffff;stroke:#4e9db5;stroke-width:2px"><p>ccbr_tools.nextflow.init()</p></span></div></foreignObject></g></g><g class="divider" style="fill:#ffffff;stroke:#4e9db5;stroke-width:2px"><path d="M-125.00390625 -12 C-25.3751789379982 -12, 74.2535483740036 -12, 125.00390625 -12 M-125.00390625 -12 C-70.8265039412048 -12, -16.649101632409597 -12, 125.00390625 -12" stroke="#4e9db5" stroke-width="2" fill="none" stroke-dasharray="0 0" style="fill:#ffffff;stroke:#4e9db5;stroke-width:2px"/></g><g class="divider" style="fill:#ffffff;stroke:#4e9db5;stroke-width:2px"><path d="M-125.00390625 36 C-69.3809148663218 36, -13.75792348264362 36, 125.00390625 36 M-125.00390625 36 C-51.88013519393964 36, 21.243635862120726 36, 125.00390625 36" stroke="#4e9db5" stroke-width="2" fill="none" stroke-dasharray="0 0" style="fill:#ffffff;stroke:#4e9db5;stroke-width:2px"/></g></g><g class="node default command" id="classId-run-3" transform="translate(640.47265625, 394.5)"><g class="basic label-container"><path d="M-125.88671875 -132 L125.88671875 -132 L125.88671875 132 L-125.88671875 132" stroke="none" stroke-width="0" fill="#ffffff" style="fill:#ffffff;stroke:#4e9db5;stroke-width:2px"/><path d="M-125.88671875 -132 C-72.29825981080995 -132, -18.70980087161992 -132, 125.88671875 -132 M-125.88671875 -132 C-74.33261423817001 -132, -22.778509726340033 -132, 125.88671875 -132 M125.88671875 -132 C125.88671875 -64.73624195935767, 125.88671875 2.5275160812846593, 125.88671875 132 M125.88671875 -132 C125.88671875 -27.249813861645407, 125.88671875 77.50037227670919, 125.88671875 132 M125.88671875 132 C27.868512854285996 132, -70.14969304142801 132, -125.88671875 132 M125.88671875 132 C39.09596750483017 132, -47.69478374033966 132, -125.88671875 132 M-125.88671875 132 C-125.88671875 59.12542446049592, -125.88671875 -13.749151079008158, -125.88671875 -132 M-125.88671875 132 C-125.88671875 37.16773835701342, -125.88671875 -57.66452328597316, -125.88671875 -132" stroke="#4e9db5" stroke-width="2" fill="none" stroke-dasharray="0 0" style="fill:#ffffff;stroke:#4e9db5;stroke-width:2px"/></g><g class="annotation-group text" transform="translate(-42.9609375, -108)"><g class="label" style="" transform="translate(0,-12)"><foreignObject width="85.921875" height="24"><div xmlns="http://www.w3.org/1999/xhtml" style="display: table-cell; white-space: nowrap; line-height: 1.5; max-width: 129px; text-align: center;"><span class="nodeLabel markdown-node-label" style="fill:#ffffff;stroke:#4e9db5;stroke-width:2px"><p>«command»</p></span></div></foreignObject></g></g><g class="label-group text" transform="translate(-12.8671875, -84)"><g class="label" style="font-weight: bolder" transform="translate(0,-12)"><foreignObject width="25.734375" height="24"><div xmlns="http://www.w3.org/1999/xhtml" style="display: table-cell; white-space: nowrap; line-height: 1.5; max-width: 71px; text-align: center;"><span class="nodeLabel markdown-node-label" style="fill:#ffffff;stroke:#4e9db5;stroke-width:2px"><p>run</p></span></div></foreignObject></g></g><g class="members-group text" transform="translate(-113.88671875, -36)"><g class="label" style="" transform="translate(0,-12)"><foreignObject width="110.34375" height="24"><div xmlns="http://www.w3.org/1999/xhtml" style="display: table-cell; white-space: nowrap; line-height: 1.5; max-width: 146px; text-align: center;"><span class="nodeLabel markdown-node-label" style="fill:#ffffff;stroke:#4e9db5;stroke-width:2px"><p>main_path : str</p></span></div></foreignObject></g><g class="label" style="" transform="translate(0,12)"><foreignObject width="94.859375" height="24"><div xmlns="http://www.w3.org/1999/xhtml" style="display: table-cell; white-space: nowrap; line-height: 1.5; max-width: 132px; text-align: center;"><span class="nodeLabel markdown-node-label" style="fill:#ffffff;stroke:#4e9db5;stroke-width:2px"><p>output : Path</p></span></div></foreignObject></g><g class="label" style="" transform="translate(0,36)"><foreignObject width="74.0625" height="24"><div xmlns="http://www.w3.org/1999/xhtml" style="display: table-cell; white-space: nowrap; line-height: 1.5; max-width: 114px; text-align: center;"><span class="nodeLabel markdown-node-label" style="fill:#ffffff;stroke:#4e9db5;stroke-width:2px"><p>mode : str</p></span></div></foreignObject></g><g class="label" style="" transform="translate(0,60)"><foreignObject width="109.921875" height="24"><div xmlns="http://www.w3.org/1999/xhtml" style="display: table-cell; white-space: nowrap; line-height: 1.5; max-width: 148px; text-align: center;"><span class="nodeLabel markdown-node-label" style="fill:#ffffff;stroke:#4e9db5;stroke-width:2px"><p>force_all : bool</p></span></div></foreignObject></g><g class="label" style="" transform="translate(0,84)"><foreignObject width="184.8125" height="24"><div xmlns="http://www.w3.org/1999/xhtml" style="display: table-cell; white-space: nowrap; line-height: 1.5; max-width: 217px; text-align: center;"><span class="nodeLabel markdown-node-label" style="fill:#ffffff;stroke:#4e9db5;stroke-width:2px"><p>nextflow_args : Tuple[str]</p></span></div></foreignObject></g></g><g class="methods-group text" transform="translate(-113.88671875, 108)"><g class="label" style="" transform="translate(0,-12)"><foreignObject width="182.546875" height="24"><div xmlns="http://www.w3.org/1999/xhtml" style="display: table-cell; white-space: nowrap; line-height: 1.5; max-width: 212px; text-align: center;"><span class="nodeLabel markdown-node-label" style="fill:#ffffff;stroke:#4e9db5;stroke-width:2px"><p>ccbr_tools.nextflow.run()</p></span></div></foreignObject></g></g><g class="divider" style="fill:#ffffff;stroke:#4e9db5;stroke-width:2px"><path d="M-125.88671875 -60 C-36.686116595556186 -60, 52.51448555888763 -60, 125.88671875 -60 M-125.88671875 -60 C-41.788820900103815 -60, 42.30907694979237 -60, 125.88671875 -60" stroke="#4e9db5" stroke-width="2" fill="none" stroke-dasharray="0 0" style="fill:#ffffff;stroke:#4e9db5;stroke-width:2px"/></g><g class="divider" style="fill:#ffffff;stroke:#4e9db5;stroke-width:2px"><path d="M-125.88671875 84 C-62.59117316515474 84, 0.7043724196905146 84, 125.88671875 84 M-125.88671875 84 C-50.1409907784129 84, 25.604737193174202 84, 125.88671875 84" stroke="#4e9db5" stroke-width="2" fill="none" stroke-dasharray="0 0" style="fill:#ffffff;stroke:#4e9db5;stroke-width:2px"/></g></g><g class="node default command" id="classId-cite-4" transform="translate(640.47265625, 660.5)"><g class="basic label-container"><path d="M-103.16796875 -84 L103.16796875 -84 L103.16796875 84 L-103.16796875 84" stroke="none" stroke-width="0" fill="#ffffff" style="fill:#ffffff;stroke:#4e9db5;stroke-width:2px"/><path d="M-103.16796875 -84 C-46.648073049172694 -84, 9.871822651654611 -84, 103.16796875 -84 M-103.16796875 -84 C-23.943392361779217 -84, 55.281184026441565 -84, 103.16796875 -84 M103.16796875 -84 C103.16796875 -32.68978395893384, 103.16796875 18.620432082132325, 103.16796875 84 M103.16796875 -84 C103.16796875 -25.869820823358666, 103.16796875 32.26035835328267, 103.16796875 84 M103.16796875 84 C20.916854978499742 84, -61.334258793000515 84, -103.16796875 84 M103.16796875 84 C33.30933062276509 84, -36.54930750446982 84, -103.16796875 84 M-103.16796875 84 C-103.16796875 29.872094167088406, -103.16796875 -24.255811665823188, -103.16796875 -84 M-103.16796875 84 C-103.16796875 45.785138149739744, -103.16796875 7.570276299479488, -103.16796875 -84" stroke="#4e9db5" stroke-width="2" fill="none" stroke-dasharray="0 0" style="fill:#ffffff;stroke:#4e9db5;stroke-width:2px"/></g><g class="annotation-group text" transform="translate(-42.9609375, -60)"><g class="label" style="" transform="translate(0,-12)"><foreignObject width="85.921875" height="24"><div xmlns="http://www.w3.org/1999/xhtml" style="display: table-cell; white-space: nowrap; line-height: 1.5; max-width: 129px; text-align: center;"><span class="nodeLabel markdown-node-label" style="fill:#ffffff;stroke:#4e9db5;stroke-width:2px"><p>«command»</p></span></div></foreignObject></g></g><g class="label-group text" transform="translate(-14.25, -36)"><g class="label" style="font-weight: bolder" transform="translate(0,-12)"><foreignObject width="28.5" height="24"><div xmlns="http://www.w3.org/1999/xhtml" style="display: table-cell; white-space: nowrap; line-height: 1.5; max-width: 73px; text-align: center;"><span class="nodeLabel markdown-node-label" style="fill:#ffffff;stroke:#4e9db5;stroke-width:2px"><p>cite</p></span></div></foreignObject></g></g><g class="members-group text" transform="translate(-91.16796875, 12)"><g class="label" style="" transform="translate(0,-12)"><foreignObject width="134.96875" height="24"><div xmlns="http://www.w3.org/1999/xhtml" style="display: table-cell; white-space: nowrap; line-height: 1.5; max-width: 168px; text-align: center;"><span class="nodeLabel markdown-node-label" style="fill:#ffffff;stroke:#4e9db5;stroke-width:2px"><p>citation_file : Path</p></span></div></foreignObject></g><g class="label" style="" transform="translate(0,12)"><foreignObject width="139.375" height="24"><div xmlns="http://www.w3.org/1999/xhtml" style="display: table-cell; white-space: nowrap; line-height: 1.5; max-width: 170px; text-align: center;"><span class="nodeLabel markdown-node-label" style="fill:#ffffff;stroke:#4e9db5;stroke-width:2px"><p>output_format : str</p></span></div></foreignObject></g></g><g class="methods-group text" transform="translate(-91.16796875, 84)"/><g class="divider" style="fill:#ffffff;stroke:#4e9db5;stroke-width:2px"><path d="M-103.16796875 -12 C-53.39905055420639 -12, -3.63013235841278 -12, 103.16796875 -12 M-103.16796875 -12 C-46.416776285439816 -12, 10.334416179120367 -12, 103.16796875 -12" stroke="#4e9db5" stroke-width="2" fill="none" stroke-dasharray="0 0" style="fill:#ffffff;stroke:#4e9db5;stroke-width:2px"/></g><g class="divider" style="fill:#ffffff;stroke:#4e9db5;stroke-width:2px"><path d="M-103.16796875 60 C-23.347599904083694 60, 56.47276894183261 60, 103.16796875 60 M-103.16796875 60 C-20.661650333906977 60, 61.84466808218605 60, 103.16796875 60" stroke="#4e9db5" stroke-width="2" fill="none" stroke-dasharray="0 0" style="fill:#ffffff;stroke:#4e9db5;stroke-width:2px"/></g></g><g class="node default service" id="classId-Nextflow Utilities-5" transform="translate(1053.46484375, 260)"><g class="basic label-container"><path d="M-187.10546875 -87 L187.10546875 -87 L187.10546875 87 L-187.10546875 87" stroke="none" stroke-width="0" fill="#ffffff" style="fill:#ffffff;stroke:#7cc349;stroke-width:2px"/><path d="M-187.10546875 -87 C-100.98549278271085 -87, -14.8655168154217 -87, 187.10546875 -87 M-187.10546875 -87 C-76.03529758874089 -87, 35.03487357251822 -87, 187.10546875 -87 M187.10546875 -87 C187.10546875 -23.327107610063692, 187.10546875 40.345784779872616, 187.10546875 87 M187.10546875 -87 C187.10546875 -46.28867761593101, 187.10546875 -5.577355231862015, 187.10546875 87 M187.10546875 87 C83.98663579316417 87, -19.132197163671663 87, -187.10546875 87 M187.10546875 87 C65.02933782849335 87, -57.04679309301329 87, -187.10546875 87 M-187.10546875 87 C-187.10546875 32.52966824186626, -187.10546875 -21.940663516267477, -187.10546875 -87 M-187.10546875 87 C-187.10546875 37.89325799672526, -187.10546875 -11.213484006549479, -187.10546875 -87" stroke="#7cc349" stroke-width="2" fill="none" stroke-dasharray="0 0" style="fill:#ffffff;stroke:#7cc349;stroke-width:2px"/></g><g class="annotation-group text" transform="translate(-34.875, -63)"><g class="label" style="" transform="translate(0,-12)"><foreignObject width="69.75" height="24"><div xmlns="http://www.w3.org/1999/xhtml" style="display: table-cell; white-space: nowrap; line-height: 1.5; max-width: 114px; text-align: center;"><span class="nodeLabel markdown-node-label" style="fill:#ffffff;stroke:#7cc349;stroke-width:2px"><p>«module»</p></span></div></foreignObject></g></g><g class="label-group text" transform="translate(-65.3828125, -39)"><g class="label" style="font-weight: bolder" transform="translate(0,-12)"><foreignObject width="130.765625" height="24"><div xmlns="http://www.w3.org/1999/xhtml" style="display: table-cell; white-space: nowrap; line-height: 1.5; max-width: 166px; text-align: center;"><span class="nodeLabel markdown-node-label" style="fill:#ffffff;stroke:#7cc349;stroke-width:2px"><p>Nextflow Utilities</p></span></div></foreignObject></g></g><g class="members-group text" transform="translate(-175.10546875, 9)"/><g class="methods-group text" transform="translate(-175.10546875, 39)"><g class="label" style="" transform="translate(0,-12)"><foreignObject width="167.6875" height="24"><div xmlns="http://www.w3.org/1999/xhtml" style="display: table-cell; white-space: nowrap; line-height: 1.5; max-width: 196px; text-align: center;"><span class="nodeLabel markdown-node-label" style="fill:#ffffff;stroke:#7cc349;stroke-width:2px"><p>init(output, repo_base)</p></span></div></foreignObject></g><g class="label" style="" transform="translate(0,12)"><foreignObject width="284.828125" height="24"><div xmlns="http://www.w3.org/1999/xhtml" style="display: table-cell; white-space: nowrap; line-height: 1.5; max-width: 295px; text-align: center;"><span class="nodeLabel markdown-node-label" style="fill:#ffffff;stroke:#7cc349;stroke-width:2px"><p>run(nextfile_path, mode, force_all, ...)</p></span></div></foreignObject></g></g><g class="divider" style="fill:#ffffff;stroke:#7cc349;stroke-width:2px"><path d="M-187.10546875 -15 C-46.5266328869767 -15, 94.0522029760466 -15, 187.10546875 -15 M-187.10546875 -15 C-85.20622878631002 -15, 16.693011177379958 -15, 187.10546875 -15" stroke="#7cc349" stroke-width="2" fill="none" stroke-dasharray="0 0" style="fill:#ffffff;stroke:#7cc349;stroke-width:2px"/></g><g class="divider" style="fill:#ffffff;stroke:#7cc349;stroke-width:2px"><path d="M-187.10546875 9 C-105.72795992155545 9, -24.350451093110905 9, 187.10546875 9 M-187.10546875 9 C-90.74723810418067 9, 5.610992541638666 9, 187.10546875 9" stroke="#7cc349" stroke-width="2" fill="none" stroke-dasharray="0 0" style="fill:#ffffff;stroke:#7cc349;stroke-width:2px"/></g></g><g class="node default external" id="classId-Slurm Scheduler-6" transform="translate(1578.74609375, 163)"><g class="basic label-container"><path d="M-150.83203125 -84 L150.83203125 -84 L150.83203125 84 L-150.83203125 84" stroke="none" stroke-width="0" fill="#ffffff" style="fill:#ffffff;stroke:#296b7f;stroke-width:2px"/><path d="M-150.83203125 -84 C-89.2854691252247 -84, -27.738907000449373 -84, 150.83203125 -84 M-150.83203125 -84 C-54.2986042649859 -84, 42.234822720028205 -84, 150.83203125 -84 M150.83203125 -84 C150.83203125 -20.368215391094523, 150.83203125 43.263569217810954, 150.83203125 84 M150.83203125 -84 C150.83203125 -37.836055383506626, 150.83203125 8.327889232986749, 150.83203125 84 M150.83203125 84 C34.52886437534282 84, -81.77430249931436 84, -150.83203125 84 M150.83203125 84 C46.18079738724617 84, -58.470436475507654 84, -150.83203125 84 M-150.83203125 84 C-150.83203125 32.18200759236122, -150.83203125 -19.635984815277567, -150.83203125 -84 M-150.83203125 84 C-150.83203125 45.442654013912744, -150.83203125 6.885308027825488, -150.83203125 -84" stroke="#296b7f" stroke-width="2" fill="none" stroke-dasharray="0 0" style="fill:#ffffff;stroke:#296b7f;stroke-width:2px"/></g><g class="annotation-group text" transform="translate(0, -60)"/><g class="label-group text" transform="translate(-61.1484375, -60)"><g class="label" style="font-weight: bolder" transform="translate(0,-12)"><foreignObject width="122.296875" height="24"><div xmlns="http://www.w3.org/1999/xhtml" style="display: table-cell; white-space: nowrap; line-height: 1.5; max-width: 157px; text-align: center;"><span class="nodeLabel markdown-node-label" style="fill:#ffffff;stroke:#296b7f;stroke-width:2px"><p>Slurm Scheduler</p></span></div></foreignObject></g></g><g class="members-group text" transform="translate(-138.83203125, -12)"><g class="label" style="" transform="translate(0,-12)"><foreignObject width="156.1875" height="24"><div xmlns="http://www.w3.org/1999/xhtml" style="display: table-cell; white-space: nowrap; line-height: 1.5; max-width: 190px; text-align: center;"><span class="nodeLabel markdown-node-label" style="fill:#ffffff;stroke:#296b7f;stroke-width:2px"><p>module load nextflow</p></span></div></foreignObject></g><g class="label" style="" transform="translate(0,12)"><foreignObject width="216.515625" height="24"><div xmlns="http://www.w3.org/1999/xhtml" style="display: table-cell; white-space: nowrap; line-height: 1.5; max-width: 241px; text-align: center;"><span class="nodeLabel markdown-node-label" style="fill:#ffffff;stroke:#296b7f;stroke-width:2px"><p>nextflow run -profile slurm ...</p></span></div></foreignObject></g></g><g class="methods-group text" transform="translate(-138.83203125, 60)"><g class="label" style="" transform="translate(0,-12)"><foreignObject width="130.75" height="24"><div xmlns="http://www.w3.org/1999/xhtml" style="display: table-cell; white-space: nowrap; line-height: 1.5; max-width: 166px; text-align: center;"><span class="nodeLabel markdown-node-label" style="fill:#ffffff;stroke:#296b7f;stroke-width:2px"><p>sbatch(job_script)</p></span></div></foreignObject></g></g><g class="divider" style="fill:#ffffff;stroke:#296b7f;stroke-width:2px"><path d="M-150.83203125 -36 C-59.94279543062662 -36, 30.946440388746765 -36, 150.83203125 -36 M-150.83203125 -36 C-62.947947572433975 -36, 24.93613610513205 -36, 150.83203125 -36" stroke="#296b7f" stroke-width="2" fill="none" stroke-dasharray="0 0" style="fill:#ffffff;stroke:#296b7f;stroke-width:2px"/></g><g class="divider" style="fill:#ffffff;stroke:#296b7f;stroke-width:2px"><path d="M-150.83203125 36 C-55.24157844069926 36, 40.348874368601486 36, 150.83203125 36 M-150.83203125 36 C-62.82103550784399 36, 25.189960234312025 36, 150.83203125 36" stroke="#296b7f" stroke-width="2" fill="none" stroke-dasharray="0 0" style="fill:#ffffff;stroke:#296b7f;stroke-width:2px"/></g></g><g class="node default external" id="classId-Local Executor-7" transform="translate(1578.74609375, 357)"><g class="basic label-container"><path d="M-96.75 -60 L96.75 -60 L96.75 60 L-96.75 60" stroke="none" stroke-width="0" fill="#ffffff" style="fill:#ffffff;stroke:#296b7f;stroke-width:2px"/><path d="M-96.75 -60 C-35.1938573661522 -60, 26.362285267695597 -60, 96.75 -60 M-96.75 -60 C-42.268948901706736 -60, 12.212102196586528 -60, 96.75 -60 M96.75 -60 C96.75 -14.156641201056452, 96.75 31.686717597887096, 96.75 60 M96.75 -60 C96.75 -29.59957687241126, 96.75 0.8008462551774826, 96.75 60 M96.75 60 C32.07799143011603 60, -32.59401713976794 60, -96.75 60 M96.75 60 C53.15120325625647 60, 9.552406512512945 60, -96.75 60 M-96.75 60 C-96.75 25.782849243972016, -96.75 -8.434301512055967, -96.75 -60 M-96.75 60 C-96.75 33.50121985482826, -96.75 7.002439709656514, -96.75 -60" stroke="#296b7f" stroke-width="2" fill="none" stroke-dasharray="0 0" style="fill:#ffffff;stroke:#296b7f;stroke-width:2px"/></g><g class="annotation-group text" transform="translate(0, -36)"/><g class="label-group text" transform="translate(-55.578125, -36)"><g class="label" style="font-weight: bolder" transform="translate(0,-12)"><foreignObject width="111.15625" height="24"><div xmlns="http://www.w3.org/1999/xhtml" style="display: table-cell; white-space: nowrap; line-height: 1.5; max-width: 148px; text-align: center;"><span class="nodeLabel markdown-node-label" style="fill:#ffffff;stroke:#296b7f;stroke-width:2px"><p>Local Executor</p></span></div></foreignObject></g></g><g class="members-group text" transform="translate(-84.75, 12)"><g class="label" style="" transform="translate(0,-12)"><foreignObject width="113.921875" height="24"><div xmlns="http://www.w3.org/1999/xhtml" style="display: table-cell; white-space: nowrap; line-height: 1.5; max-width: 148px; text-align: center;"><span class="nodeLabel markdown-node-label" style="fill:#ffffff;stroke:#296b7f;stroke-width:2px"><p>nextflow run ...</p></span></div></foreignObject></g></g><g class="methods-group text" transform="translate(-84.75, 60)"/><g class="divider" style="fill:#ffffff;stroke:#296b7f;stroke-width:2px"><path d="M-96.75 -12 C-31.35615974766293 -12, 34.03768050467414 -12, 96.75 -12 M-96.75 -12 C-49.318867933326295 -12, -1.8877358666525907 -12, 96.75 -12" stroke="#296b7f" stroke-width="2" fill="none" stroke-dasharray="0 0" style="fill:#ffffff;stroke:#296b7f;stroke-width:2px"/></g><g class="divider" style="fill:#ffffff;stroke:#296b7f;stroke-width:2px"><path d="M-96.75 36 C-32.980295882595456 36, 30.789408234809088 36, 96.75 36 M-96.75 36 C-42.281411573071985 36, 12.18717685385603 36, 96.75 36" stroke="#296b7f" stroke-width="2" fill="none" stroke-dasharray="0 0" style="fill:#ffffff;stroke:#296b7f;stroke-width:2px"/></g></g></g></g></g></svg>