<svg id="my-svg" width="100%" xmlns="http://www.w3.org/2000/svg" xmlns:xlink="http://www.w3.org/1999/xlink" class="classDiagram" style="max-width: 1735.47px; background-color: white;" viewBox="0 0 1735.46875 787.5" role="graphics-document document" aria-roledescription="class"><style>#my-svg{font-family:"trebuchet ms",verdana,arial,sans-serif;font-size:16px;fill:#333;}@keyframes edge-animation-frame{from{stroke-dashoffset:0;}}@keyframes dash{to{stroke-dashoffset:0;}}#my-svg .edge-animation-slow{stroke-dasharray:9,5!important;stroke-dashoffset:900;animation:dash 50s linear infinite;stroke-linecap:round;}#my-svg .edge-animation-fast{stroke-dasharray:9,5!important;stroke-dashoffset:900;animation:dash 20s linear infinite;stroke-linecap:round;}#my-svg .error-icon{fill:#552222;}#my-svg .error-text{fill:#552222;stroke:#552222;}#my-svg .edge-thickness-normal{stroke-width:1px;}#my-svg .edge-thickness-thick{stroke-width:3.5px;}#my-svg .edge-pattern-solid{stroke-dasharray:0;}#my-svg .edge-thickness-invisible{stroke-width:0;fill:none;}#my-svg .edge-pattern-dashed{stroke-dasharray:3;}#my-svg .edge-pattern-dotted{stroke-dasharray:2;}#my-svg .marker{fill:#333333;stroke:#333333;}#my-svg .marker.cross{stroke:#333333;}#my-svg svg{font-family:"trebuchet ms",verdana,arial,sans-serif;font-size:16px;}#my-svg p{margin:0;}#my-svg g.classGroup text{fill:#9370DB;stroke:none;font-family:"trebuchet ms",verdana,arial,sans-serif;font-size:10px;}#my-svg g.classGroup text .title{font-weight:bolder;}#my-svg .nodeLabel,#my-svg .edgeLabel{color:#131300;}#my-svg .edgeLabel .label rect{fill:#ECECFF;}#my-svg .label text{fill:#131300;}#my-svg .labelBkg{background:#ECECFF;}#my-svg .edgeLabel .label span{background:#ECECFF;}#my-svg .classTitle{font-weight:bolder;}#my-svg .node rect,#my-svg .node circle,#my-svg .node ellipse,#my-svg .node polygon,#my-svg .node path{fill:#ECECFF;stroke:#9370DB;stroke-width:1px;}#my-svg .divider{stroke:#9370DB;stroke-width:1;}#my-svg g.clickable{cursor:pointer;}#my-svg g.classGroup rect{fill:#ECECFF;stroke:#9370DB;}#my-svg g.classGroup line{stroke:#9370DB;stroke-width:1;}#my-svg .classLabel .box{stroke:none;stroke-width:0;fill:#ECECFF;opacity:0.5;}#my-svg .classLabel .label{fill:#9370DB;font-size:10px;}#my-svg .relation{stroke:#333333;stroke-width:1;fill:none;}#my-svg .dashed-line{stroke-dasharray:3;}#my-svg .dotted-line{stroke-dasharray:1 2;}#my-svg #compositionStart,#my-svg .composition{fill:#333333!important;stroke:#333333!important;stroke-width:1;}#my-svg #compositionEnd,#my-svg .composition{fill:#333333!important;stroke:#333333!important;stroke-width:1;}#my-svg #dependencyStart,#my-svg .dependency{fill:#333333!important;stroke:#333333!important;stroke-width:1;}#my-svg #dependencyStart,#my-svg .dependency{fill:#333333!important;stroke:#333333!important;stroke-width:1;}#my-svg #extensionStart,#my-svg .extension{fill:transparent!important;stroke:#333333!important;stroke-width:1;}#my-svg #extensionEnd,#my-svg .extension{fill:transparent!important;stroke:#333333!important;stroke-width:1;}#my-svg #aggregationStart,#my-svg .aggregation{fill:transparent!important;stroke:#333333!important;stroke-width:1;}#my-svg #aggregationEnd,#my-svg .aggregation{fill:transparent!important;stroke:#333333!important;stroke-width:1;}#my-svg #lollipopStart,#my-svg .lollipop{fill:#ECECFF!important;stroke:#333333!important;stroke-width:1;}#my-svg #lollipopEnd,#my-svg .lollipop{fill:#ECECFF!important;stroke:#333333!important;stroke-width:1;}#my-svg .edgeTerminals{font-size:11px;line-height:initial;}#my-svg .classTitleText{text-anchor:middle;font-size:18px;fill:#333;}#my-svg .label-icon{display:inline-block;height:1em;overflow:visible;vertical-align:-0.125em;}#my-svg .node .label-icon path{fill:currentColor;stroke:revert;stroke-width:revert;}#my-svg :root{--mermaid-font-family:"trebuchet ms",verdana,arial,sans-serif;}#my-svg .HPC User&gt;*{fill:#ffffff!important;stroke:#000000!important;stroke-width:2px!important;}#my-svg .HPC User span{fill:#ffffff!important;stroke:#000000!important;stroke-width:2px!important;}#my-svg .CLI&gt;*{fill:#ffffff!important;stroke:#4e9db5!important;stroke-width:2px!important;}#my-svg .CLI span{fill:#ffffff!important;stroke:#4e9db5!important;stroke-width:2px!important;}#my-svg .init&gt;*{fill:#ffffff!important;stroke:#4e9db5!important;stroke-width:2px!important;}#my-svg .init span{fill:#ffffff!important;stroke:#4e9db5!important;stroke-width:2px!important;}#my-svg .run&gt;*{fill:#ffffff!important;stroke:#4e9db5!important;stroke-width:2px!important;}#my-svg .run span{fill:#ffffff!important;stroke:#4e9db5!important;stroke-width:2px!important;}#my-svg .cite&gt;*{fill:#ffffff!important;stroke:#4e9db5!important;stroke-width:2px!important;}#my-svg .cite span{fill:#ffffff!important;stroke:#4e9db5!important;stroke-width:2px!important;}#my-svg .Nextflow Utilities&gt;*{fill:#ffffff!important;stroke:#7cc349!important;stroke-width:2px!important;}#my-svg .Nextflow Utilities span{fill:#ffffff!important;stroke:#7cc349!important;stroke-width:2px!important;}#my-svg .Slurm Scheduler&gt;*{fill:#ffffff!important;stroke:#296b7f!important;stroke-width:2px!important;}#my-svg .Slurm Scheduler span{fill:#ffffff!important;stroke:#296b7f!important;stroke-width:2px!important;}#my-svg .Local Executor&gt;*{fill:#ffffff!important;stroke:#296b7f!important;stroke-width:2px!important;}#my-svg .Local Executor span{fill:#ffffff!important;stroke:#296b7f!important;stroke-width:2px!important;}</style><g><defs><marker id="my-svg_class-aggregationStart" class="marker aggregation class" refX="18" refY="7" markerWidth="190" markerHeight="240" orient="auto"><path d="M 18,7 L9,13 L1,7 L9,1 Z"/></marker></defs><defs><marker id="my-svg_class-aggregationEnd" class="marker aggregation class" refX="1" refY="7" markerWidth="20" markerHeight="28" orient="auto"><path d="M 18,7 L9,13 L1,7 L9,1 Z"/></marker></defs><defs><marker id="my-svg_class-extensionStart" class="marker extension class" refX="18" refY="7" markerWidth="190" markerHeight="240" orient="auto"><path d="M 1,7 L18,13 V 1 Z"/></marker></defs><defs><marker id="my-svg_class-extensionEnd" class="marker extension class" refX="1" refY="7" markerWidth="20" markerHeight="28" orient="auto"><path d="M 1,1 V 13 L18,7 Z"/></marker></defs><defs><marker id="my-svg_class-compositionStart" class="marker composition class" refX="18" refY="7" markerWidth="190" markerHeight="240" orient="auto"><path d="M 18,7 L9,13 L1,7 L9,1 Z"/></marker></defs><defs><marker id="my-svg_class-compositionEnd" class="marker composition class" refX="1" refY="7" markerWidth="20" markerHeight="28" orient="auto"><path d="M 18,7 L9,13 L1,7 L9,1 Z"/></marker></defs><defs><marker id="my-svg_class-dependencyStart" class="marker dependency class" refX="6" refY="7" markerWidth="190" markerHeight="240" orient="auto"><path d="M 5,7 L9,13 L1,7 L9,1 Z"/></marker></defs><defs><marker id="my-svg_class-dependencyEnd" class="marker dependency class" refX="13" refY="7" markerWidth="20" markerHeight="28" orient="auto"><path d="M 18,7 L9,13 L14,7 L9,1 Z"/></marker></defs><defs><marker id="my-svg_class-lollipopStart" class="marker lollipop class" refX="13" refY="7" markerWidth="190" markerHeight="240" orient="auto"><circle stroke="black" fill="transparent" cx="7" cy="7" r="6"/></marker></defs><defs><marker id="my-svg_class-lollipopEnd" class="marker lollipop class" refX="1" refY="7" markerWidth="190" markerHeight="240" orient="auto"><circle stroke="black" fill="transparent" cx="7" cy="7" r="6"/></marker></defs><g class="root"><g class="clusters"><g class="cluster undefined" id="Bioinf pipeline repository" data-look="classic"><rect style="fill:none !important;stroke:black !important" x="296.6171875" y="8" width="467.6328125" height="771.5"/><g class="cluster-label" transform="translate(439.70703125, 8)"><foreignObject width="181.453125" height="24"><div xmlns="http://www.w3.org/1999/xhtml" style="display: table-cell; white-space: nowrap; line-height: 1.5; max-width: 200px; text-align: center;"><span class="nodeLabel"><p>Bioinf pipeline repository</p></span></div></foreignObject></g></g><g class="cluster undefined" id="Tools repository" data-look="classic"><rect style="fill:none !important;stroke:black !important" x="814.25" y="46" width="424.2109375" height="418"/><g class="cluster-label" transform="translate(969.84765625, 46)"><foreignObject width="113.015625" height="24"><div xmlns="http://www.w3.org/1999/xhtml" style="display: table-cell; white-space: nowrap; line-height: 1.5; max-width: 200px; text-align: center;"><span class="nodeLabel"><p>Tools repository</p></span></div></foreignObject></g></g><g class="cluster undefined" id="Nextflow" data-look="classic"><rect style="fill:none !important;stroke:black !important" x="1375.8046875" y="44" width="351.6640625" height="408"/><g class="cluster-label" transform="translate(1519.42578125, 44)"><foreignObject width="64.421875" height="24"><div xmlns="http://www.w3.org/1999/xhtml" style="display: table-cell; white-space: nowrap; line-height: 1.5; max-width: 200px; text-align: center;"><span class="nodeLabel"><p>Nextflow</p></span></div></foreignObject></g></g></g><g class="edgePaths"><path d="M193.617,394.5L202.201,394.5C210.784,394.5,227.951,394.5,245.117,394.5C262.284,394.5,279.451,394.5,291.201,394.5C302.951,394.5,309.284,394.5,312.451,394.5L315.617,394.5" id="id_HPC User_CLI_1" class="edge-thickness-normal edge-pattern-solid relation" style=";;;" data-edge="true" data-et="edge" data-id="id_HPC User_CLI_1" data-points="W3sieCI6MTkzLjYxNzE4NzUsInkiOjM5NC41fSx7IngiOjI0NS4xMTcxODc1LCJ5IjozOTQuNX0seyJ4IjoyOTYuNjE3MTg3NSwieSI6Mzk0LjV9LHsieCI6MzIxLjYxNzE4NzUsInkiOjM5NC41fV0=" marker-end="url(#my-svg_class-dependencyEnd)"/><path d="M415.546,279.032L423.368,253.943C431.189,228.855,446.833,178.677,458.969,153.589C471.104,128.5,479.732,128.5,484.046,128.5L488.359,128.5" id="id_CLI_init_2" class="edge-thickness-normal edge-pattern-solid relation" style=";;;" data-edge="true" data-et="edge" data-id="id_CLI_init_2" data-points="W3sieCI6NDEwLjQxMTY4MzUwNTYzOTEsInkiOjI5NS41fSx7IngiOjQ2Mi40NzY1NjI1LCJ5IjoxMjguNX0seyJ4Ijo0ODguMzU5Mzc1LCJ5IjoxMjguNX1d" marker-start="url(#my-svg_class-compositionStart)"/><path d="M454.727,394.5L456.018,394.5C457.31,394.5,459.893,394.5,465.352,394.5C470.81,394.5,479.143,394.5,483.31,394.5L487.477,394.5" id="id_CLI_run_3" class="edge-thickness-normal edge-pattern-solid relation" style=";;;" data-edge="true" data-et="edge" data-id="id_CLI_run_3" data-points="W3sieCI6NDM3LjQ3NjU2MjUsInkiOjM5NC41fSx7IngiOjQ2Mi40NzY1NjI1LCJ5IjozOTQuNX0seyJ4Ijo0ODcuNDc2NTYyNSwieSI6Mzk0LjV9XQ==" marker-start="url(#my-svg_class-compositionStart)"/><path d="M415.546,509.968L423.368,535.057C431.189,560.145,446.833,610.323,462.608,635.411C478.383,660.5,494.289,660.5,502.242,660.5L510.195,660.5" id="id_CLI_cite_4" class="edge-thickness-normal edge-pattern-solid relation" style=";;;" data-edge="true" data-et="edge" data-id="id_CLI_cite_4" data-points="W3sieCI6NDEwLjQxMTY4MzUwNTYzOTEsInkiOjQ5My41fSx7IngiOjQ2Mi40NzY1NjI1LCJ5Ijo2NjAuNX0seyJ4Ijo1MTAuMTk1MzEyNSwieSI6NjYwLjV9XQ==" marker-start="url(#my-svg_class-compositionStart)"/><path d="M738.367,128.5L742.681,128.5C746.995,128.5,755.622,128.5,764.103,128.5C772.583,128.5,780.917,128.5,789.25,128.5C797.583,128.5,805.917,128.5,821.196,135.39C836.476,142.279,858.702,156.059,869.815,162.949L880.928,169.838" id="id_init_Nextflow Utilities_5" class="edge-thickness-normal edge-pattern-dashed relation" style=";;;" data-edge="true" data-et="edge" data-id="id_init_Nextflow Utilities_5" data-points="W3sieCI6NzM4LjM2NzE4NzUsInkiOjEyOC41fSx7IngiOjc2NC4yNSwieSI6MTI4LjV9LHsieCI6Nzg5LjI1LCJ5IjoxMjguNX0seyJ4Ijo4MTQuMjUsInkiOjEyOC41fSx7IngiOjg4Ni4wMjcxMzU4MTI3Mzc3LCJ5IjoxNzN9XQ==" marker-end="url(#my-svg_class-dependencyEnd)"/><path d="M739.25,394.5L743.417,394.5C747.583,394.5,755.917,394.5,764.25,394.5C772.583,394.5,780.917,394.5,789.25,394.5C797.583,394.5,805.917,394.5,821.723,387.119C837.53,379.738,860.81,364.975,872.45,357.594L884.09,350.213" id="id_run_Nextflow Utilities_6" class="edge-thickness-normal edge-pattern-dashed relation" style=";;;" data-edge="true" data-et="edge" data-id="id_run_Nextflow Utilities_6" data-points="W3sieCI6NzM5LjI1LCJ5IjozOTQuNX0seyJ4Ijo3NjQuMjUsInkiOjM5NC41fSx7IngiOjc4OS4yNSwieSI6Mzk0LjV9LHsieCI6ODE0LjI1LCJ5IjozOTQuNX0seyJ4Ijo4ODkuMTU3MTM1ODAzOTAzMywieSI6MzQ3fV0=" marker-end="url(#my-svg_class-dependencyEnd)"/><path d="M1213.461,174.433L1217.628,172.527C1221.794,170.622,1230.128,166.811,1245.74,164.905C1261.352,163,1284.242,163,1307.133,163C1330.023,163,1352.914,163,1367.526,163C1382.138,163,1388.471,163,1391.638,163L1394.805,163" id="id_Nextflow Utilities_Slurm Scheduler_7" class="edge-thickness-normal edge-pattern-dashed relation" style=";;;" data-edge="true" data-et="edge" data-id="id_Nextflow Utilities_Slurm Scheduler_7" data-points="W3sieCI6MTIxMy40NjA5Mzc1LCJ5IjoxNzQuNDMyOTkxMzk5NDczMjh9LHsieCI6MTIzOC40NjA5Mzc1LCJ5IjoxNjN9LHsieCI6MTMwNy4xMzI4MTI1LCJ5IjoxNjN9LHsieCI6MTM3NS44MDQ2ODc1LCJ5IjoxNjN9LHsieCI6MTQwMC44MDQ2ODc1LCJ5IjoxNjN9XQ==" marker-end="url(#my-svg_class-dependencyEnd)"/><path d="M1213.461,345.567L1217.628,347.473C1221.794,349.378,1230.128,353.189,1245.74,355.095C1261.352,357,1284.242,357,1307.133,357C1330.023,357,1352.914,357,1376.54,357C1400.165,357,1424.526,357,1436.706,357L1448.887,357" id="id_Nextflow Utilities_Local Executor_8" class="edge-thickness-normal edge-pattern-dashed relation" style=";;;" data-edge="true" data-et="edge" data-id="id_Nextflow Utilities_Local Executor_8" data-points="W3sieCI6MTIxMy40NjA5Mzc1LCJ5IjozNDUuNTY3MDA4NjAwNTI2N30seyJ4IjoxMjM4LjQ2MDkzNzUsInkiOjM1N30seyJ4IjoxMzA3LjEzMjgxMjUsInkiOjM1N30seyJ4IjoxMzc1LjgwNDY4NzUsInkiOjM1N30seyJ4IjoxNDU0Ljg4NjcxODc1LCJ5IjozNTd9XQ==" marker-end="url(#my-svg_class-dependencyEnd)"/></g><g class="edgeLabels"><g class="edgeLabel" transform="translate(245.1171875, 394.5)"><g class="label" data-id="id_HPC User_CLI_1" transform="translate(-26.5, -12)"><foreignObject width="53" height="24"><div xmlns="http://www.w3.org/1999/xhtml" class="labelBkg" style="display: table-cell; white-space: nowrap; line-height: 1.5; max-width: 200px; text-align: center;"><span class="edgeLabel"><p>invokes</p></span></div></foreignObject></g></g><g class="edgeLabel"><g class="label" data-id="id_CLI_init_2" transform="translate(0, 0)"><foreignObject width="0" height="0"><div xmlns="http://www.w3.org/1999/xhtml" class="labelBkg" style="display: table-cell; white-space: nowrap; line-height: 1.5; max-width: 200px; text-align: center;"><span class="edgeLabel"></span></div></foreignObject></g></g><g class="edgeLabel"><g class="label" data-id="id_CLI_run_3" transform="translate(0, 0)"><foreignObject width="0" height="0"><div xmlns="http://www.w3.org/1999/xhtml" class="labelBkg" style="display: table-cell; white-space: nowrap; line-height: 1.5; max-width: 200px; text-align: center;"><span class="edgeLabel"></span></div></foreignObject></g></g><g class="edgeLabel"><g class="label" data-id="id_CLI_cite_4" transform="translate(0, 0)"><foreignObject width="0" height="0"><div xmlns="http://www.w3.org/1999/xhtml" class="labelBkg" style="display: table-cell; white-space: nowrap; line-height: 1.5; max-width: 200px; text-align: center;"><span class="edgeLabel"></span></div></foreignObject></g></g><g class="edgeLabel"><g class="label" data-id="id_init_Nextflow Utilities_5" transform="translate(0, 0)"><foreignObject width="0" height="0"><div xmlns="http://www.w3.org/1999/xhtml" class="labelBkg" style="display: table-cell; white-space: nowrap; line-height: 1.5; max-width: 200px; text-align: center;"><span class="edgeLabel"></span></div></foreignObject></g></g><g class="edgeLabel"><g class="label" data-id="id_run_Nextflow Utilities_6" transform="translate(0, 0)"><foreignObject width="0" height="0"><div xmlns="http://www.w3.org/1999/xhtml" class="labelBkg" style="display: table-cell; white-space: nowrap; line-height: 1.5; max-width: 200px; text-align: center;"><span class="edgeLabel"></span></div></foreignObject></g></g><g class="edgeLabel" transform="translate(1307.1328125, 163)"><g class="label" data-id="id_Nextflow Utilities_Slurm Scheduler_7" transform="translate(-43.671875, -12)"><foreignObject width="87.34375" height="24"><div xmlns="http://www.w3.org/1999/xhtml" class="labelBkg" style="display: table-cell; white-space: nowrap; line-height: 1.5; max-width: 200px; text-align: center;"><span class="edgeLabel"><p>mode=slurm</p></span></div></foreignObject></g></g><g class="edgeLabel" transform="translate(1307.1328125, 357)"><g class="label" data-id="id_Nextflow Utilities_Local Executor_8" transform="translate(-41.125, -12)"><foreignObject width="82.25" height="24"><div xmlns="http://www.w3.org/1999/xhtml" class="labelBkg" style="display: table-cell; white-space: nowrap; line-height: 1.5; max-width: 200px; text-align: center;"><span class="edgeLabel"><p>mode=local</p></span></div></foreignObject></g></g></g><g class="nodes"><g class="node default actor" id="classId-HPC User-0" transform="translate(100.80859375, 394.5)"><g class="basic label-container"><path d="M-92.80859375 -84 L92.80859375 -84 L92.80859375 84 L-92.80859375 84" stroke="none" stroke-width="0" fill="#ffffff" style="fill:#ffffff;stroke:#000000;stroke-width:2px"/><path d="M-92.80859375 -84 C-36.37885392141471 -84, 20.05088590717058 -84, 92.80859375 -84 M-92.80859375 -84 C-37.507784034562484 -84, 17.793025680875033 -84, 92.80859375 -84 M92.80859375 -84 C92.80859375 -46.7946868346115, 92.80859375 -9.589373669222994, 92.80859375 84 M92.80859375 -84 C92.80859375 -28.04124441587995, 92.80859375 27.917511168240097, 92.80859375 84 M92.80859375 84 C29.170509692618218 84, -34.467574364763564 84, -92.80859375 84 M92.80859375 84 C50.175791155619294 84, 7.542988561238587 84, -92.80859375 84 M-92.80859375 84 C-92.80859375 22.685719147350866, -92.80859375 -38.62856170529827, -92.80859375 -84 M-92.80859375 84 C-92.80859375 19.493606621593358, -92.80859375 -45.012786756813284, -92.80859375 -84" stroke="#000000" stroke-width="2" fill="none" stroke-dasharray="0 0" style="fill:#ffffff;stroke:#000000;stroke-width:2px"/></g><g class="annotation-group text" transform="translate(-27.1328125, -60)"><g class="label" style="" transform="translate(0,-12)"><foreignObject width="54.265625" height="24"><div xmlns="http://www.w3.org/1999/xhtml" style="display: table-cell; white-space: nowrap; line-height: 1.5; max-width: 98px; text-align: center;"><span class="nodeLabel markdown-node-label" style="fill:#ffffff;stroke:#000000;stroke-width:2px"><p>«actor»</p></span></div></foreignObject></g></g><g class="label-group text" transform="translate(-34.3515625, -36)"><g class="label" style="font-weight: bolder" transform="translate(0,-12)"><foreignObject width="68.703125" height="24"><div xmlns="http://www.w3.org/1999/xhtml" style="display: table-cell; white-space: nowrap; line-height: 1.5; max-width: 115px; text-align: center;"><span class="nodeLabel markdown-node-label" style="fill:#ffffff;stroke:#000000;stroke-width:2px"><p>HPC User</p></span></div></foreignObject></g></g><g class="members-group text" transform="translate(-80.80859375, 12)"><g class="label" style="" transform="translate(0,-12)"><foreignObject width="127.265625" height="24"><div xmlns="http://www.w3.org/1999/xhtml" style="display: table-cell; white-space: nowrap; line-height: 1.5; max-width: 159px; text-align: center;"><span class="nodeLabel markdown-node-label" style="fill:#ffffff;stroke:#000000;stroke-width:2px"><p>tool_name init ...</p></span></div></foreignObject></g><g class="label" style="" transform="translate(0,12)"><foreignObject width="126.75" height="24"><div xmlns="http://www.w3.org/1999/xhtml" style="display: table-cell; white-space: nowrap; line-height: 1.5; max-width: 159px; text-align: center;"><span class="nodeLabel markdown-node-label" style="fill:#ffffff;stroke:#000000;stroke-width:2px"><p>tool_name run ...</p></span></div></foreignObject></g></g><g class="methods-group text" transform="translate(-80.80859375, 84)"/><g class="divider" style="fill:#ffffff;stroke:#000000;stroke-width:2px"><path d="M-92.80859375 -12 C-38.16504048493188 -12, 16.478512780136242 -12, 92.80859375 -12 M-92.80859375 -12 C-20.0437082180229 -12, 52.7211773139542 -12, 92.80859375 -12" stroke="#000000" stroke-width="2" fill="none" stroke-dasharray="0 0" style="fill:#ffffff;stroke:#000000;stroke-width:2px"/></g><g class="divider" style="fill:#ffffff;stroke:#000000;stroke-width:2px"><path d="M-92.80859375 60 C-43.981161968609115 60, 4.84626981278177 60, 92.80859375 60 M-92.80859375 60 C-31.708625835752144 60, 29.39134207849571 60, 92.80859375 60" stroke="#000000" stroke-width="2" fill="none" stroke-dasharray="0 0" style="fill:#ffffff;stroke:#000000;stroke-width:2px"/></g></g><g class="node default entrypoint" id="classId-CLI-1" transform="translate(379.546875, 394.5)"><g class="basic label-container"><path d="M-57.9296875 -99 L57.9296875 -99 L57.9296875 99 L-57.9296875 99" stroke="none" stroke-width="0" fill="#ffffff" style="fill:#ffffff;stroke:#4e9db5;stroke-width:2px"/><path d="M-57.9296875 -99 C-31.440356868369292 -99, -4.951026236738585 -99, 57.9296875 -99 M-57.9296875 -99 C-26.980723694168613 -99, 3.968240111662773 -99, 57.9296875 -99 M57.9296875 -99 C57.9296875 -21.147125403728495, 57.9296875 56.70574919254301, 57.9296875 99 M57.9296875 -99 C57.9296875 -49.67914598366219, 57.9296875 -0.3582919673243765, 57.9296875 99 M57.9296875 99 C20.42641505322551 99, -17.076857393548977 99, -57.9296875 99 M57.9296875 99 C16.6990155092424 99, -24.5316564815152 99, -57.9296875 99 M-57.9296875 99 C-57.9296875 43.78311290858065, -57.9296875 -11.433774182838704, -57.9296875 -99 M-57.9296875 99 C-57.9296875 37.637957514985914, -57.9296875 -23.724084970028173, -57.9296875 -99" stroke="#4e9db5" stroke-width="2" fill="none" stroke-dasharray="0 0" style="fill:#ffffff;stroke:#4e9db5;stroke-width:2px"/></g><g class="annotation-group text" transform="translate(-45.9296875, -75)"><g class="label" style="" transform="translate(0,-12)"><foreignObject width="91.859375" height="24"><div xmlns="http://www.w3.org/1999/xhtml" style="display: table-cell; white-space: nowrap; line-height: 1.5; max-width: 132px; text-align: center;"><span class="nodeLabel markdown-node-label" style="fill:#ffffff;stroke:#4e9db5;stroke-width:2px"><p>«entrypoint»</p></span></div></foreignObject></g></g><g class="label-group text" transform="translate(-11.546875, -51)"><g class="label" style="font-weight: bolder" transform="translate(0,-12)"><foreignObject width="23.09375" height="24"><div xmlns="http://www.w3.org/1999/xhtml" style="display: table-cell; white-space: nowrap; line-height: 1.5; max-width: 76px; text-align: center;"><span class="nodeLabel markdown-node-label" style="fill:#ffffff;stroke:#4e9db5;stroke-width:2px"><p>CLI</p></span></div></foreignObject></g></g><g class="members-group text" transform="translate(-45.9296875, -3)"/><g class="methods-group text" transform="translate(-45.9296875, 27)"><g class="label" style="" transform="translate(0,-12)"><foreignObject width="35.96875" height="24"><div xmlns="http://www.w3.org/1999/xhtml" style="display: table-cell; white-space: nowrap; line-height: 1.5; max-width: 82px; text-align: center;"><span class="nodeLabel markdown-node-label" style="fill:#ffffff;stroke:#4e9db5;stroke-width:2px"><p>init()</p></span></div></foreignObject></g><g class="label" style="" transform="translate(0,12)"><foreignObject width="35.453125" height="24"><div xmlns="http://www.w3.org/1999/xhtml" style="display: table-cell; white-space: nowrap; line-height: 1.5; max-width: 82px; text-align: center;"><span class="nodeLabel markdown-node-label" style="fill:#ffffff;stroke:#4e9db5;stroke-width:2px"><p>run()</p></span></div></foreignObject></g><g class="label" style="" transform="translate(0,36)"><foreignObject width="39.3125" height="24"><div xmlns="http://www.w3.org/1999/xhtml" style="display: table-cell; white-space: nowrap; line-height: 1.5; max-width: 84px; text-align: center;"><span class="nodeLabel markdown-node-label" style="fill:#ffffff;stroke:#4e9db5;stroke-width:2px"><p>cite()</p></span></div></foreignObject></g></g><g class="divider" style="fill:#ffffff;stroke:#4e9db5;stroke-width:2px"><path d="M-57.9296875 -27 C-28.56400809330317 -27, 0.8016713133936619 -27, 57.9296875 -27 M-57.9296875 -27 C-30.535880615136925 -27, -3.14207373027385 -27, 57.9296875 -27" stroke="#4e9db5" stroke-width="2" fill="none" stroke-dasharray="0 0" style="fill:#ffffff;stroke:#4e9db5;stroke-width:2px"/></g><g class="divider" style="fill:#ffffff;stroke:#4e9db5;stroke-width:2px"><path d="M-57.9296875 -3 C-29.34726378872581 -3, -0.7648400774516233 -3, 57.9296875 -3 M-57.9296875 -3 C-31.820112936926787 -3, -5.7105383738535735 -3, 57.9296875 -3" stroke="#4e9db5" stroke-width="2" fill="none" stroke-dasharray="0 0" style="fill:#ffffff;stroke:#4e9db5;stroke-width:2px"/></g></g><g class="node default command" id="classId-init-2" transform="translate(613.36328125, 128.5)"><g class="basic label-container"><path d="M-125.00390625 -84 L125.00390625 -84 L125.00390625 84 L-125.00390625 84" stroke="none" stroke-width="0" fill="#ffffff" style="fill:#ffffff;stroke:#4e9db5;stroke-width:2px"/><path d="M-125.00390625 -84 C-27.219344236116612 -84, 70.56521777776678 -84, 125.00390625 -84 M-125.00390625 -84 C-47.70956856300339 -84, 29.584769123993226 -84, 125.00390625 -84 M125.00390625 -84 C125.00390625 -29.363352261193327, 125.00390625 25.273295477613345, 125.00390625 84 M125.00390625 -84 C125.00390625 -19.794733741051218, 125.00390625 44.410532517897565, 125.00390625 84 M125.00390625 84 C26.4915546535358 84, -72.0207969429284 84, -125.00390625 84 M125.00390625 84 C35.21959409522337 84, -54.56471805955326 84, -125.00390625 84 M-125.00390625 84 C-125.00390625 26.537299959042343, -125.00390625 -30.925400081915313, -125.00390625 -84 M-125.00390625 84 C-125.00390625 32.509424099488676, -125.00390625 -18.981151801022648, -125.00390625 -84" stroke="#4e9db5" stroke-width="2" fill="none" stroke-dasharray="0 0" style="fill:#ffffff;stroke:#4e9db5;stroke-width:2px"/></g><g class="annotation-group text" transform="translate(-42.9609375, -60)"><g class="label" style="" transform="translate(0,-12)"><foreignObject width="85.921875" height="24"><div xmlns="http://www.w3.org/1999/xhtml" style="display: table-cell; white-space: nowrap; line-height: 1.5; max-width: 129px; text-align: center;"><span class="nodeLabel markdown-node-label" style="fill:#ffffff;stroke:#4e9db5;stroke-width:2px"><p>«command»</p></span></div></foreignObject></g></g><g class="label-group text" transform="translate(-12.671875, -36)"><g class="label" style="font-weight: bolder" transform="translate(0,-12)"><foreignObject width="25.34375" height="24"><div xmlns="http://www.w3.org/1999/xhtml" style="display: table-cell; white-space: nowrap; line-height: 1.5; max-width: 71px; text-align: center;"><span class="nodeLabel markdown-node-label" style="fill:#ffffff;stroke:#4e9db5;stroke-width:2px"><p>init</p></span></div></foreignObject></g></g><g class="members-group text" transform="translate(-113.00390625, 12)"><g class="label" style="" transform="translate(0,-12)"><foreignObject width="94.859375" height="24"><div xmlns="http://www.w3.org/1999/xhtml" style="display: table-cell; white-space: nowrap; line-height: 1.5; max-width: 132px; text-align: center;"><span class="nodeLabel markdown-node-label" style="fill:#ffffff;stroke:#4e9db5;stroke-width:2px"><p>output : Path</p></span></div></foreignObject></g></g><g class="methods-group text" transform="translate(-113.00390625, 60)"><g class="label" style="" transform="translate(0,-12)"><foreignObject width="183.046875" height="24"><div xmlns="http://www.w3.org/1999/xhtml" style="display: table-cell; white-space: nowrap; line-height: 1.5; max-width: 212px; text-align: center;"><span class="nodeLabel markdown-node-label" style="fill:#ffffff;stroke:#4e9db5;stroke-width:2px"><p>ccbr_tools.nextflow.init()</p></span></div></foreignObject></g></g><g class="divider" style="fill:#ffffff;stroke:#4e9db5;stroke-width:2px"><path d="M-125.00390625 -12 C-74.44860516423626 -12, -23.893304078472497 -12, 125.00390625 -12 M-125.00390625 -12 C-26.290348547744827 -12, 72.42320915451035 -12, 125.00390625 -12" stroke="#4e9db5" stroke-width="2" fill="none" stroke-dasharray="0 0" style="fill:#ffffff;stroke:#4e9db5;stroke-width:2px"/></g><g class="divider" style="fill:#ffffff;stroke:#4e9db5;stroke-width:2px"><path d="M-125.00390625 36 C-43.902829937962636 36, 37.19824637407473 36, 125.00390625 36 M-125.00390625 36 C-28.310712914833005 36, 68.38248042033399 36, 125.00390625 36" stroke="#4e9db5" stroke-width="2" fill="none" stroke-dasharray="0 0" style="fill:#ffffff;stroke:#4e9db5;stroke-width:2px"/></g></g><g class="node default command" id="classId-run-3" transform="translate(613.36328125, 394.5)"><g class="basic label-container"><path d="M-125.88671875 -132 L125.88671875 -132 L125.88671875 132 L-125.88671875 132" stroke="none" stroke-width="0" fill="#ffffff" style="fill:#ffffff;stroke:#4e9db5;stroke-width:2px"/><path d="M-125.88671875 -132 C-25.442309787841893 -132, 75.00209917431621 -132, 125.88671875 -132 M-125.88671875 -132 C-31.053860414743426 -132, 63.77899792051315 -132, 125.88671875 -132 M125.88671875 -132 C125.88671875 -36.43515000328914, 125.88671875 59.129699993421724, 125.88671875 132 M125.88671875 -132 C125.88671875 -28.574559093704764, 125.88671875 74.85088181259047, 125.88671875 132 M125.88671875 132 C61.665945376093774 132, -2.5548279978124526 132, -125.88671875 132 M125.88671875 132 C71.51733997357553 132, 17.147961197151062 132, -125.88671875 132 M-125.88671875 132 C-125.88671875 43.96851646840864, -125.88671875 -44.062967063182725, -125.88671875 -132 M-125.88671875 132 C-125.88671875 55.215534814345546, -125.88671875 -21.56893037130891, -125.88671875 -132" stroke="#4e9db5" stroke-width="2" fill="none" stroke-dasharray="0 0" style="fill:#ffffff;stroke:#4e9db5;stroke-width:2px"/></g><g class="annotation-group text" transform="translate(-42.9609375, -108)"><g class="label" style="" transform="translate(0,-12)"><foreignObject width="85.921875" height="24"><div xmlns="http://www.w3.org/1999/xhtml" style="display: table-cell; white-space: nowrap; line-height: 1.5; max-width: 129px; text-align: center;"><span class="nodeLabel markdown-node-label" style="fill:#ffffff;stroke:#4e9db5;stroke-width:2px"><p>«command»</p></span></div></foreignObject></g></g><g class="label-group text" transform="translate(-12.8671875, -84)"><g class="label" style="font-weight: bolder" transform="translate(0,-12)"><foreignObject width="25.734375" height="24"><div xmlns="http://www.w3.org/1999/xhtml" style="display: table-cell; white-space: nowrap; line-height: 1.5; max-width: 71px; text-align: center;"><span class="nodeLabel markdown-node-label" style="fill:#ffffff;stroke:#4e9db5;stroke-width:2px"><p>run</p></span></div></foreignObject></g></g><g class="members-group text" transform="translate(-113.88671875, -36)"><g class="label" style="" transform="translate(0,-12)"><foreignObject width="110.34375" height="24"><div xmlns="http://www.w3.org/1999/xhtml" style="display: table-cell; white-space: nowrap; line-height: 1.5; max-width: 146px; text-align: center;"><span class="nodeLabel markdown-node-label" style="fill:#ffffff;stroke:#4e9db5;stroke-width:2px"><p>main_path : str</p></span></div></foreignObject></g><g class="label" style="" transform="translate(0,12)"><foreignObject width="94.859375" height="24"><div xmlns="http://www.w3.org/1999/xhtml" style="display: table-cell; white-space: nowrap; line-height: 1.5; max-width: 132px; text-align: center;"><span class="nodeLabel markdown-node-label" style="fill:#ffffff;stroke:#4e9db5;stroke-width:2px"><p>output : Path</p></span></div></foreignObject></g><g class="label" style="" transform="translate(0,36)"><foreignObject width="74.0625" height="24"><div xmlns="http://www.w3.org/1999/xhtml" style="display: table-cell; white-space: nowrap; line-height: 1.5; max-width: 114px; text-align: center;"><span class="nodeLabel markdown-node-label" style="fill:#ffffff;stroke:#4e9db5;stroke-width:2px"><p>mode : str</p></span></div></foreignObject></g><g class="label" style="" transform="translate(0,60)"><foreignObject width="109.921875" height="24"><div xmlns="http://www.w3.org/1999/xhtml" style="display: table-cell; white-space: nowrap; line-height: 1.5; max-width: 148px; text-align: center;"><span class="nodeLabel markdown-node-label" style="fill:#ffffff;stroke:#4e9db5;stroke-width:2px"><p>force_all : bool</p></span></div></foreignObject></g><g class="label" style="" transform="translate(0,84)"><foreignObject width="184.8125" height="24"><div xmlns="http://www.w3.org/1999/xhtml" style="display: table-cell; white-space: nowrap; line-height: 1.5; max-width: 217px; text-align: center;"><span class="nodeLabel markdown-node-label" style="fill:#ffffff;stroke:#4e9db5;stroke-width:2px"><p>nextflow_args : Tuple[str]</p></span></div></foreignObject></g></g><g class="methods-group text" transform="translate(-113.88671875, 108)"><g class="label" style="" transform="translate(0,-12)"><foreignObject width="182.546875" height="24"><div xmlns="http://www.w3.org/1999/xhtml" style="display: table-cell; white-space: nowrap; line-height: 1.5; max-width: 212px; text-align: center;"><span class="nodeLabel markdown-node-label" style="fill:#ffffff;stroke:#4e9db5;stroke-width:2px"><p>ccbr_tools.nextflow.run()</p></span></div></foreignObject></g></g><g class="divider" style="fill:#ffffff;stroke:#4e9db5;stroke-width:2px"><path d="M-125.88671875 -60 C-51.227271496265985 -60, 23.43217575746803 -60, 125.88671875 -60 M-125.88671875 -60 C-43.66167143048297 -60, 38.56337588903406 -60, 125.88671875 -60" stroke="#4e9db5" stroke-width="2" fill="none" stroke-dasharray="0 0" style="fill:#ffffff;stroke:#4e9db5;stroke-width:2px"/></g><g class="divider" style="fill:#ffffff;stroke:#4e9db5;stroke-width:2px"><path d="M-125.88671875 84 C-62.59005893093714 84, 0.7066008881257204 84, 125.88671875 84 M-125.88671875 84 C-54.16449702092932 84, 17.557724708141365 84, 125.88671875 84" stroke="#4e9db5" stroke-width="2" fill="none" stroke-dasharray="0 0" style="fill:#ffffff;stroke:#4e9db5;stroke-width:2px"/></g></g><g class="node default command" id="classId-cite-4" transform="translate(613.36328125, 660.5)"><g class="basic label-container"><path d="M-103.16796875 -84 L103.16796875 -84 L103.16796875 84 L-103.16796875 84" stroke="none" stroke-width="0" fill="#ffffff" style="fill:#ffffff;stroke:#4e9db5;stroke-width:2px"/><path d="M-103.16796875 -84 C-20.726935305412553 -84, 61.714098139174894 -84, 103.16796875 -84 M-103.16796875 -84 C-37.01913180411874 -84, 29.129705141762514 -84, 103.16796875 -84 M103.16796875 -84 C103.16796875 -45.322283527527084, 103.16796875 -6.644567055054168, 103.16796875 84 M103.16796875 -84 C103.16796875 -38.06833056619148, 103.16796875 7.8633388676170455, 103.16796875 84 M103.16796875 84 C20.72497628696067 84, -61.71801617607866 84, -103.16796875 84 M103.16796875 84 C45.68276046926432 84, -11.802447811471353 84, -103.16796875 84 M-103.16796875 84 C-103.16796875 17.240347353039752, -103.16796875 -49.519305293920496, -103.16796875 -84 M-103.16796875 84 C-103.16796875 39.95652688116421, -103.16796875 -4.086946237671583, -103.16796875 -84" stroke="#4e9db5" stroke-width="2" fill="none" stroke-dasharray="0 0" style="fill:#ffffff;stroke:#4e9db5;stroke-width:2px"/></g><g class="annotation-group text" transform="translate(-42.9609375, -60)"><g class="label" style="" transform="translate(0,-12)"><foreignObject width="85.921875" height="24"><div xmlns="http://www.w3.org/1999/xhtml" style="display: table-cell; white-space: nowrap; line-height: 1.5; max-width: 129px; text-align: center;"><span class="nodeLabel markdown-node-label" style="fill:#ffffff;stroke:#4e9db5;stroke-width:2px"><p>«command»</p></span></div></foreignObject></g></g><g class="label-group text" transform="translate(-14.25, -36)"><g class="label" style="font-weight: bolder" transform="translate(0,-12)"><foreignObject width="28.5" height="24"><div xmlns="http://www.w3.org/1999/xhtml" style="display: table-cell; white-space: nowrap; line-height: 1.5; max-width: 73px; text-align: center;"><span class="nodeLabel markdown-node-label" style="fill:#ffffff;stroke:#4e9db5;stroke-width:2px"><p>cite</p></span></div></foreignObject></g></g><g class="members-group text" transform="translate(-91.16796875, 12)"><g class="label" style="" transform="translate(0,-12)"><foreignObject width="134.96875" height="24"><div xmlns="http://www.w3.org/1999/xhtml" style="display: table-cell; white-space: nowrap; line-height: 1.5; max-width: 168px; text-align: center;"><span class="nodeLabel markdown-node-label" style="fill:#ffffff;stroke:#4e9db5;stroke-width:2px"><p>citation_file : Path</p></span></div></foreignObject></g><g class="label" style="" transform="translate(0,12)"><foreignObject width="139.375" height="24"><div xmlns="http://www.w3.org/1999/xhtml" style="display: table-cell; white-space: nowrap; line-height: 1.5; max-width: 170px; text-align: center;"><span class="nodeLabel markdown-node-label" style="fill:#ffffff;stroke:#4e9db5;stroke-width:2px"><p>output_format : str</p></span></div></foreignObject></g></g><g class="methods-group text" transform="translate(-91.16796875, 84)"/><g class="divider" style="fill:#ffffff;stroke:#4e9db5;stroke-width:2px"><path d="M-103.16796875 -12 C-54.14186364658297 -12, -5.1157585431659385 -12, 103.16796875 -12 M-103.16796875 -12 C-27.397786535259144 -12, 48.37239567948171 -12, 103.16796875 -12" stroke="#4e9db5" stroke-width="2" fill="none" stroke-dasharray="0 0" style="fill:#ffffff;stroke:#4e9db5;stroke-width:2px"/></g><g class="divider" style="fill:#ffffff;stroke:#4e9db5;stroke-width:2px"><path d="M-103.16796875 60 C-54.16093919774382 60, -5.153909645487644 60, 103.16796875 60 M-103.16796875 60 C-37.693039842576425 60, 27.78188906484715 60, 103.16796875 60" stroke="#4e9db5" stroke-width="2" fill="none" stroke-dasharray="0 0" style="fill:#ffffff;stroke:#4e9db5;stroke-width:2px"/></g></g><g class="node default service" id="classId-Nextflow Utilities-5" transform="translate(1026.35546875, 260)"><g class="basic label-container"><path d="M-187.10546875 -87 L187.10546875 -87 L187.10546875 87 L-187.10546875 87" stroke="none" stroke-width="0" fill="#ffffff" style="fill:#ffffff;stroke:#7cc349;stroke-width:2px"/><path d="M-187.10546875 -87 C-51.15744271417651 -87, 84.79058332164698 -87, 187.10546875 -87 M-187.10546875 -87 C-72.57919555703441 -87, 41.94707763593118 -87, 187.10546875 -87 M187.10546875 -87 C187.10546875 -20.464998579931148, 187.10546875 46.070002840137704, 187.10546875 87 M187.10546875 -87 C187.10546875 -46.762602363019376, 187.10546875 -6.525204726038751, 187.10546875 87 M187.10546875 87 C47.662868357998065 87, -91.77973203400387 87, -187.10546875 87 M187.10546875 87 C100.02531019272756 87, 12.945151635455119 87, -187.10546875 87 M-187.10546875 87 C-187.10546875 29.498369696885085, -187.10546875 -28.00326060622983, -187.10546875 -87 M-187.10546875 87 C-187.10546875 50.224603181494885, -187.10546875 13.44920636298977, -187.10546875 -87" stroke="#7cc349" stroke-width="2" fill="none" stroke-dasharray="0 0" style="fill:#ffffff;stroke:#7cc349;stroke-width:2px"/></g><g class="annotation-group text" transform="translate(-34.875, -63)"><g class="label" style="" transform="translate(0,-12)"><foreignObject width="69.75" height="24"><div xmlns="http://www.w3.org/1999/xhtml" style="display: table-cell; white-space: nowrap; line-height: 1.5; max-width: 114px; text-align: center;"><span class="nodeLabel markdown-node-label" style="fill:#ffffff;stroke:#7cc349;stroke-width:2px"><p>«module»</p></span></div></foreignObject></g></g><g class="label-group text" transform="translate(-65.3828125, -39)"><g class="label" style="font-weight: bolder" transform="translate(0,-12)"><foreignObject width="130.765625" height="24"><div xmlns="http://www.w3.org/1999/xhtml" style="display: table-cell; white-space: nowrap; line-height: 1.5; max-width: 166px; text-align: center;"><span class="nodeLabel markdown-node-label" style="fill:#ffffff;stroke:#7cc349;stroke-width:2px"><p>Nextflow Utilities</p></span></div></foreignObject></g></g><g class="members-group text" transform="translate(-175.10546875, 9)"/><g class="methods-group text" transform="translate(-175.10546875, 39)"><g class="label" style="" transform="translate(0,-12)"><foreignObject width="167.6875" height="24"><div xmlns="http://www.w3.org/1999/xhtml" style="display: table-cell; white-space: nowrap; line-height: 1.5; max-width: 196px; text-align: center;"><span class="nodeLabel markdown-node-label" style="fill:#ffffff;stroke:#7cc349;stroke-width:2px"><p>init(output, repo_base)</p></span></div></foreignObject></g><g class="label" style="" transform="translate(0,12)"><foreignObject width="284.828125" height="24"><div xmlns="http://www.w3.org/1999/xhtml" style="display: table-cell; white-space: nowrap; line-height: 1.5; max-width: 295px; text-align: center;"><span class="nodeLabel markdown-node-label" style="fill:#ffffff;stroke:#7cc349;stroke-width:2px"><p>run(nextfile_path, mode, force_all, ...)</p></span></div></foreignObject></g></g><g class="divider" style="fill:#ffffff;stroke:#7cc349;stroke-width:2px"><path d="M-187.10546875 -15 C-82.94354268382146 -15, 21.218383382357075 -15, 187.10546875 -15 M-187.10546875 -15 C-106.57267354905316 -15, -26.039878348106328 -15, 187.10546875 -15" stroke="#7cc349" stroke-width="2" fill="none" stroke-dasharray="0 0" style="fill:#ffffff;stroke:#7cc349;stroke-width:2px"/></g><g class="divider" style="fill:#ffffff;stroke:#7cc349;stroke-width:2px"><path d="M-187.10546875 9 C-73.3599458818171 9, 40.385576986365805 9, 187.10546875 9 M-187.10546875 9 C-68.1789001101917 9, 50.74766852961659 9, 187.10546875 9" stroke="#7cc349" stroke-width="2" fill="none" stroke-dasharray="0 0" style="fill:#ffffff;stroke:#7cc349;stroke-width:2px"/></g></g><g class="node default external" id="classId-Slurm Scheduler-6" transform="translate(1551.63671875, 163)"><g class="basic label-container"><path d="M-150.83203125 -84 L150.83203125 -84 L150.83203125 84 L-150.83203125 84" stroke="none" stroke-width="0" fill="#ffffff" style="fill:#ffffff;stroke:#296b7f;stroke-width:2px"/><path d="M-150.83203125 -84 C-88.95654962785028 -84, -27.081068005700544 -84, 150.83203125 -84 M-150.83203125 -84 C-53.41424640681201 -84, 44.003538436375976 -84, 150.83203125 -84 M150.83203125 -84 C150.83203125 -36.85042687130418, 150.83203125 10.29914625739164, 150.83203125 84 M150.83203125 -84 C150.83203125 -20.73490407603139, 150.83203125 42.53019184793722, 150.83203125 84 M150.83203125 84 C36.075890667584176 84, -78.68024991483165 84, -150.83203125 84 M150.83203125 84 C63.06508504957009 84, -24.701861150859827 84, -150.83203125 84 M-150.83203125 84 C-150.83203125 26.596895372840578, -150.83203125 -30.806209254318844, -150.83203125 -84 M-150.83203125 84 C-150.83203125 19.250765298742692, -150.83203125 -45.498469402514615, -150.83203125 -84" stroke="#296b7f" stroke-width="2" fill="none" stroke-dasharray="0 0" style="fill:#ffffff;stroke:#296b7f;stroke-width:2px"/></g><g class="annotation-group text" transform="translate(0, -60)"/><g class="label-group text" transform="translate(-61.1484375, -60)"><g class="label" style="font-weight: bolder" transform="translate(0,-12)"><foreignObject width="122.296875" height="24"><div xmlns="http://www.w3.org/1999/xhtml" style="display: table-cell; white-space: nowrap; line-height: 1.5; max-width: 157px; text-align: center;"><span class="nodeLabel markdown-node-label" style="fill:#ffffff;stroke:#296b7f;stroke-width:2px"><p>Slurm Scheduler</p></span></div></foreignObject></g></g><g class="members-group text" transform="translate(-138.83203125, -12)"><g class="label" style="" transform="translate(0,-12)"><foreignObject width="156.1875" height="24"><div xmlns="http://www.w3.org/1999/xhtml" style="display: table-cell; white-space: nowrap; line-height: 1.5; max-width: 190px; text-align: center;"><span class="nodeLabel markdown-node-label" style="fill:#ffffff;stroke:#296b7f;stroke-width:2px"><p>module load nextflow</p></span></div></foreignObject></g><g class="label" style="" transform="translate(0,12)"><foreignObject width="216.515625" height="24"><div xmlns="http://www.w3.org/1999/xhtml" style="display: table-cell; white-space: nowrap; line-height: 1.5; max-width: 241px; text-align: center;"><span class="nodeLabel markdown-node-label" style="fill:#ffffff;stroke:#296b7f;stroke-width:2px"><p>nextflow run -profile slurm ...</p></span></div></foreignObject></g></g><g class="methods-group text" transform="translate(-138.83203125, 60)"><g class="label" style="" transform="translate(0,-12)"><foreignObject width="130.75" height="24"><div xmlns="http://www.w3.org/1999/xhtml" style="display: table-cell; white-space: nowrap; line-height: 1.5; max-width: 166px; text-align: center;"><span class="nodeLabel markdown-node-label" style="fill:#ffffff;stroke:#296b7f;stroke-width:2px"><p>sbatch(job_script)</p></span></div></foreignObject></g></g><g class="divider" style="fill:#ffffff;stroke:#296b7f;stroke-width:2px"><path d="M-150.83203125 -36 C-36.575221580913336 -36, 77.68158808817333 -36, 150.83203125 -36 M-150.83203125 -36 C-73.49016351347888 -36, 3.8517042230422476 -36, 150.83203125 -36" stroke="#296b7f" stroke-width="2" fill="none" stroke-dasharray="0 0" style="fill:#ffffff;stroke:#296b7f;stroke-width:2px"/></g><g class="divider" style="fill:#ffffff;stroke:#296b7f;stroke-width:2px"><path d="M-150.83203125 36 C-75.48330194848364 36, -0.13457264696728544 36, 150.83203125 36 M-150.83203125 36 C-37.16413141484885 36, 76.5037684203023 36, 150.83203125 36" stroke="#296b7f" stroke-width="2" fill="none" stroke-dasharray="0 0" style="fill:#ffffff;stroke:#296b7f;stroke-width:2px"/></g></g><g class="node default external" id="classId-Local Executor-7" transform="translate(1551.63671875, 357)"><g class="basic label-container"><path d="M-96.75 -60 L96.75 -60 L96.75 60 L-96.75 60" stroke="none" stroke-width="0" fill="#ffffff" style="fill:#ffffff;stroke:#296b7f;stroke-width:2px"/><path d="M-96.75 -60 C-37.57644172408137 -60, 21.59711655183726 -60, 96.75 -60 M-96.75 -60 C-27.49270675769698 -60, 41.76458648460604 -60, 96.75 -60 M96.75 -60 C96.75 -12.481857451627121, 96.75 35.03628509674576, 96.75 60 M96.75 -60 C96.75 -15.806855326536144, 96.75 28.38628934692771, 96.75 60 M96.75 60 C34.99974640283881 60, -26.75050719432238 60, -96.75 60 M96.75 60 C24.656924259926356 60, -47.43615148014729 60, -96.75 60 M-96.75 60 C-96.75 17.04210374186068, -96.75 -25.915792516278643, -96.75 -60 M-96.75 60 C-96.75 16.17599643094016, -96.75 -27.64800713811968, -96.75 -60" stroke="#296b7f" stroke-width="2" fill="none" stroke-dasharray="0 0" style="fill:#ffffff;stroke:#296b7f;stroke-width:2px"/></g><g class="annotation-group text" transform="translate(0, -36)"/><g class="label-group text" transform="translate(-55.578125, -36)"><g class="label" style="font-weight: bolder" transform="translate(0,-12)"><foreignObject width="111.15625" height="24"><div xmlns="http://www.w3.org/1999/xhtml" style="display: table-cell; white-space: nowrap; line-height: 1.5; max-width: 148px; text-align: center;"><span class="nodeLabel markdown-node-label" style="fill:#ffffff;stroke:#296b7f;stroke-width:2px"><p>Local Executor</p></span></div></foreignObject></g></g><g class="members-group text" transform="translate(-84.75, 12)"><g class="label" style="" transform="translate(0,-12)"><foreignObject width="113.921875" height="24"><div xmlns="http://www.w3.org/1999/xhtml" style="display: table-cell; white-space: nowrap; line-height: 1.5; max-width: 148px; text-align: center;"><span class="nodeLabel markdown-node-label" style="fill:#ffffff;stroke:#296b7f;stroke-width:2px"><p>nextflow run ...</p></span></div></foreignObject></g></g><g class="methods-group text" transform="translate(-84.75, 60)"/><g class="divider" style="fill:#ffffff;stroke:#296b7f;stroke-width:2px"><path d="M-96.75 -12 C-54.063687357763826 -12, -11.377374715527651 -12, 96.75 -12 M-96.75 -12 C-34.69867116072692 -12, 27.352657678546166 -12, 96.75 -12" stroke="#296b7f" stroke-width="2" fill="none" stroke-dasharray="0 0" style="fill:#ffffff;stroke:#296b7f;stroke-width:2px"/></g><g class="divider" style="fill:#ffffff;stroke:#296b7f;stroke-width:2px"><path d="M-96.75 36 C-28.623447603463177 36, 39.503104793073646 36, 96.75 36 M-96.75 36 C-25.53461455088899 36, 45.68077089822202 36, 96.75 36" stroke="#296b7f" stroke-width="2" fill="none" stroke-dasharray="0 0" style="fill:#ffffff;stroke:#296b7f;stroke-width:2px"/></g></g></g></g></g></svg>